<svg width="344" height="228" viewBox="0 0 344 228" fill="none" xmlns="http://www.w3.org/2000/svg">
<path fill-rule="evenodd" clip-rule="evenodd" d="M224.885 90.8996C225.318 90.5228 225.861 90.2945 226.433 90.2481L226.446 90.2471L249.355 88.6612C249.702 88.6374 250.049 88.71 250.358 88.871C250.662 89.0303 250.918 89.27 251.096 89.564C251.098 89.567 251.1 89.5701 251.102 89.5732L251.104 89.5764C251.281 89.8742 251.373 90.2152 251.369 90.5618C251.365 90.9095 251.265 91.2494 251.08 91.5439L238.851 111.003C238.539 111.486 238.081 111.856 237.544 112.06C237.007 112.264 236.419 112.29 235.866 112.136C235.313 111.982 234.823 111.655 234.469 111.202C234.115 110.75 233.915 110.197 233.898 109.623C233.898 109.608 233.898 109.594 233.898 109.58L233.997 99.8071L225.347 95.2856C225.334 95.2789 225.321 95.2719 225.309 95.2647C224.811 94.9783 224.418 94.5402 224.186 94.0144C223.955 93.4886 223.898 92.9027 224.024 92.3423C224.15 91.7819 224.451 91.2763 224.885 90.8996ZM247.441 90.5086L226.603 92.395C226.49 92.4052 226.383 92.4506 226.298 92.5249C226.211 92.6003 226.151 92.7014 226.126 92.8135C226.1 92.9256 226.112 93.0427 226.158 93.1479C226.202 93.2482 226.276 93.3325 226.369 93.3898L235.26 97.7958L247.441 90.5086ZM236.32 99.6713L248.547 92.3563L237.039 109.839C236.976 109.934 236.886 110.006 236.78 110.046C236.673 110.087 236.555 110.093 236.444 110.062C236.334 110.031 236.236 109.965 236.165 109.875C236.098 109.789 236.058 109.684 236.052 109.575L236.32 99.6713Z" fill="#444954" style="fill:#444954;fill:color(display-p3 0.2667 0.2863 0.3294);fill-opacity:1;"/>
<path d="M163.325 34.9157C151.718 46.6018 131.21 75.0176 142.029 95.1919C155.554 120.41 220.453 78.7984 195.364 67.1658C170.276 55.5332 145.882 121.518 181.568 119.891C196.398 118.12 211.221 114.199 225.703 105.012" stroke="#293042" style="stroke:#293042;stroke:color(display-p3 0.1608 0.1882 0.2588);stroke-opacity:1;" stroke-width="2.25" stroke-dasharray="6 6"/>
<rect x="80.0027" width="173.524" height="58.3398" rx="29.1699" fill="#272A31" style="fill:#272A31;fill:color(display-p3 0.1529 0.1647 0.1922);fill-opacity:1;"/>
<g opacity="0.4">
<rect x="104.753" y="20.4312" width="111" height="4.5" rx="2.25" fill="#444954" style="fill:#444954;fill:color(display-p3 0.2667 0.2863 0.3294);fill-opacity:1;"/>
</g>
<g opacity="0.4">
<rect x="118.253" y="33.9312" width="110.25" height="4.5" rx="2.25" fill="#444954" style="fill:#444954;fill:color(display-p3 0.2667 0.2863 0.3294);fill-opacity:1;"/>
</g>
<path d="M120.392 71.0549L108.425 54.6001L132.359 54.6001L120.392 71.0549Z" fill="#272A31" style="fill:#272A31;fill:color(display-p3 0.1529 0.1647 0.1922);fill-opacity:1;"/>
<path d="M65.8089 160.344C65.7294 159.599 65.3942 159.02 64.8033 158.605C64.218 158.19 63.4567 157.983 62.5192 157.983C61.8601 157.983 61.2947 158.082 60.8232 158.281C60.3516 158.48 59.9908 158.75 59.7408 159.091C59.4908 159.432 59.3629 159.821 59.3572 160.259C59.3572 160.622 59.4396 160.937 59.6044 161.205C59.7749 161.472 60.005 161.699 60.2947 161.886C60.5845 162.068 60.9055 162.222 61.2578 162.347C61.6101 162.472 61.9652 162.577 62.3232 162.662L63.9595 163.071C64.6186 163.224 65.2521 163.432 65.8601 163.693C66.4737 163.955 67.022 164.284 67.505 164.682C67.9936 165.08 68.38 165.56 68.6641 166.122C68.9482 166.685 69.0902 167.344 69.0902 168.099C69.0902 169.122 68.8288 170.023 68.3061 170.801C67.7834 171.574 67.0277 172.179 66.0391 172.616C65.0561 173.048 63.8658 173.264 62.468 173.264C61.1101 173.264 59.9311 173.054 58.9311 172.634C57.9368 172.213 57.1584 171.599 56.5959 170.793C56.0391 169.986 55.7379 169.003 55.6925 167.844H58.8033C58.8487 168.452 59.0362 168.957 59.3658 169.361C59.6953 169.764 60.1243 170.065 60.6527 170.264C61.1868 170.463 61.7834 170.562 62.4425 170.562C63.13 170.562 63.7322 170.46 64.2493 170.256C64.772 170.045 65.1811 169.756 65.4766 169.386C65.772 169.011 65.9226 168.574 65.9283 168.074C65.9226 167.619 65.7891 167.244 65.5277 166.949C65.2663 166.648 64.8999 166.398 64.4283 166.199C63.9624 165.994 63.4169 165.812 62.7919 165.653L60.8061 165.142C59.3686 164.773 58.2322 164.213 57.397 163.463C56.5675 162.707 56.1527 161.705 56.1527 160.455C56.1527 159.426 56.4311 158.526 56.9879 157.753C57.5504 156.98 58.3146 156.381 59.2805 155.955C60.2464 155.523 61.3402 155.307 62.5618 155.307C63.8004 155.307 64.8857 155.523 65.8175 155.955C66.755 156.381 67.4908 156.974 68.0249 157.736C68.5589 158.491 68.8345 159.361 68.8516 160.344H65.8089ZM78.3097 159.909V162.295H70.7841V159.909H78.3097ZM72.642 156.773H75.7273V169.062C75.7273 169.477 75.7898 169.795 75.9148 170.017C76.0455 170.233 76.2159 170.381 76.4261 170.46C76.6364 170.54 76.8693 170.58 77.125 170.58C77.3182 170.58 77.4943 170.565 77.6534 170.537C77.8182 170.509 77.9432 170.483 78.0284 170.46L78.5483 172.872C78.3835 172.929 78.1477 172.991 77.8409 173.06C77.5398 173.128 77.1705 173.168 76.733 173.179C75.9602 173.202 75.2642 173.085 74.6449 172.83C74.0256 172.568 73.5341 172.165 73.1705 171.619C72.8125 171.074 72.6364 170.392 72.642 169.574V156.773ZM84.657 173.264C83.8274 173.264 83.0803 173.116 82.4155 172.821C81.7564 172.52 81.2337 172.077 80.8473 171.491C80.4666 170.906 80.2763 170.185 80.2763 169.327C80.2763 168.588 80.4126 167.977 80.6854 167.494C80.9581 167.011 81.3303 166.625 81.8018 166.335C82.2734 166.045 82.8047 165.827 83.3956 165.679C83.9922 165.526 84.6087 165.415 85.245 165.347C86.0121 165.267 86.6342 165.196 87.1115 165.134C87.5888 165.065 87.9354 164.963 88.1513 164.827C88.3729 164.685 88.4837 164.466 88.4837 164.17V164.119C88.4837 163.477 88.2933 162.98 87.9126 162.628C87.532 162.276 86.9837 162.099 86.2678 162.099C85.5121 162.099 84.9126 162.264 84.4695 162.594C84.032 162.923 83.7365 163.312 83.5831 163.761L80.7024 163.352C80.9297 162.557 81.3047 161.892 81.8274 161.358C82.3501 160.818 82.9893 160.415 83.745 160.148C84.5007 159.875 85.3359 159.739 86.2507 159.739C86.8814 159.739 87.5092 159.812 88.1342 159.96C88.7592 160.108 89.3303 160.352 89.8473 160.693C90.3643 161.028 90.7791 161.486 91.0916 162.065C91.4098 162.645 91.5689 163.369 91.5689 164.239V173H88.603V171.202H88.5007C88.3132 171.565 88.049 171.906 87.7081 172.224C87.3729 172.537 86.9496 172.79 86.4382 172.983C85.9325 173.17 85.3388 173.264 84.657 173.264ZM85.4581 170.997C86.0774 170.997 86.6143 170.875 87.0689 170.631C87.5234 170.381 87.8729 170.051 88.1172 169.642C88.3672 169.233 88.4922 168.787 88.4922 168.304V166.761C88.3956 166.841 88.2308 166.915 87.9979 166.983C87.7706 167.051 87.5149 167.111 87.2308 167.162C86.9467 167.213 86.6655 167.259 86.3871 167.298C86.1087 167.338 85.8672 167.372 85.6626 167.401C85.2024 167.463 84.7905 167.565 84.4268 167.707C84.0632 167.849 83.7763 168.048 83.5661 168.304C83.3558 168.554 83.2507 168.878 83.2507 169.276C83.2507 169.844 83.4581 170.273 83.8729 170.562C84.2876 170.852 84.8161 170.997 85.4581 170.997ZM94.6712 173V159.909H97.6626V162.091H97.799C98.0376 161.335 98.4467 160.753 99.0263 160.344C99.6115 159.929 100.279 159.722 101.029 159.722C101.2 159.722 101.39 159.73 101.6 159.747C101.816 159.759 101.995 159.778 102.137 159.807V162.645C102.006 162.599 101.799 162.56 101.515 162.526C101.237 162.486 100.967 162.466 100.705 162.466C100.143 162.466 99.6371 162.588 99.1882 162.832C98.745 163.071 98.3956 163.403 98.1399 163.83C97.8842 164.256 97.7564 164.747 97.7564 165.304V173H94.6712ZM111.427 159.909V162.295H103.901V159.909H111.427ZM105.759 156.773H108.844V169.062C108.844 169.477 108.907 169.795 109.032 170.017C109.163 170.233 109.333 170.381 109.543 170.46C109.754 170.54 109.987 170.58 110.242 170.58C110.435 170.58 110.612 170.565 110.771 170.537C110.935 170.509 111.06 170.483 111.146 170.46L111.665 172.872C111.501 172.929 111.265 172.991 110.958 173.06C110.657 173.128 110.288 173.168 109.85 173.179C109.077 173.202 108.381 173.085 107.762 172.83C107.143 172.568 106.651 172.165 106.288 171.619C105.93 171.074 105.754 170.392 105.759 169.574V156.773ZM123.727 173.264C122.898 173.264 122.151 173.116 121.486 172.821C120.827 172.52 120.304 172.077 119.918 171.491C119.537 170.906 119.347 170.185 119.347 169.327C119.347 168.588 119.483 167.977 119.756 167.494C120.028 167.011 120.401 166.625 120.872 166.335C121.344 166.045 121.875 165.827 122.466 165.679C123.063 165.526 123.679 165.415 124.315 165.347C125.082 165.267 125.705 165.196 126.182 165.134C126.659 165.065 127.006 164.963 127.222 164.827C127.443 164.685 127.554 164.466 127.554 164.17V164.119C127.554 163.477 127.364 162.98 126.983 162.628C126.602 162.276 126.054 162.099 125.338 162.099C124.582 162.099 123.983 162.264 123.54 162.594C123.102 162.923 122.807 163.312 122.653 163.761L119.773 163.352C120 162.557 120.375 161.892 120.898 161.358C121.42 160.818 122.06 160.415 122.815 160.148C123.571 159.875 124.406 159.739 125.321 159.739C125.952 159.739 126.58 159.812 127.205 159.96C127.83 160.108 128.401 160.352 128.918 160.693C129.435 161.028 129.849 161.486 130.162 162.065C130.48 162.645 130.639 163.369 130.639 164.239V173H127.673V171.202H127.571C127.384 171.565 127.119 171.906 126.778 172.224C126.443 172.537 126.02 172.79 125.509 172.983C125.003 173.17 124.409 173.264 123.727 173.264ZM124.528 170.997C125.148 170.997 125.685 170.875 126.139 170.631C126.594 170.381 126.943 170.051 127.188 169.642C127.438 169.233 127.562 168.787 127.562 168.304V166.761C127.466 166.841 127.301 166.915 127.068 166.983C126.841 167.051 126.585 167.111 126.301 167.162C126.017 167.213 125.736 167.259 125.457 167.298C125.179 167.338 124.938 167.372 124.733 167.401C124.273 167.463 123.861 167.565 123.497 167.707C123.134 167.849 122.847 168.048 122.636 168.304C122.426 168.554 122.321 168.878 122.321 169.276C122.321 169.844 122.528 170.273 122.943 170.562C123.358 170.852 123.886 170.997 124.528 170.997ZM145.405 173.256C144.098 173.256 142.976 172.969 142.038 172.395C141.107 171.821 140.388 171.028 139.882 170.017C139.382 169 139.132 167.83 139.132 166.506C139.132 165.176 139.388 164.003 139.899 162.986C140.411 161.963 141.132 161.168 142.064 160.599C143.001 160.026 144.109 159.739 145.388 159.739C146.45 159.739 147.391 159.935 148.209 160.327C149.033 160.713 149.689 161.261 150.178 161.972C150.666 162.676 150.945 163.5 151.013 164.443H148.064C147.945 163.812 147.661 163.287 147.212 162.866C146.768 162.44 146.175 162.227 145.43 162.227C144.8 162.227 144.246 162.398 143.768 162.739C143.291 163.074 142.919 163.557 142.652 164.188C142.391 164.818 142.26 165.574 142.26 166.455C142.26 167.347 142.391 168.114 142.652 168.756C142.913 169.392 143.28 169.884 143.751 170.23C144.229 170.571 144.788 170.741 145.43 170.741C145.885 170.741 146.291 170.656 146.649 170.486C147.013 170.31 147.317 170.057 147.561 169.727C147.805 169.398 147.973 168.997 148.064 168.526H151.013C150.939 169.452 150.666 170.273 150.195 170.989C149.723 171.699 149.081 172.256 148.268 172.659C147.456 173.057 146.501 173.256 145.405 173.256ZM159.256 173.256C157.978 173.256 156.87 172.974 155.933 172.412C154.995 171.849 154.268 171.062 153.751 170.051C153.239 169.04 152.984 167.858 152.984 166.506C152.984 165.153 153.239 163.969 153.751 162.952C154.268 161.935 154.995 161.145 155.933 160.582C156.87 160.02 157.978 159.739 159.256 159.739C160.535 159.739 161.643 160.02 162.58 160.582C163.518 161.145 164.242 161.935 164.754 162.952C165.271 163.969 165.529 165.153 165.529 166.506C165.529 167.858 165.271 169.04 164.754 170.051C164.242 171.062 163.518 171.849 162.58 172.412C161.643 172.974 160.535 173.256 159.256 173.256ZM159.273 170.784C159.967 170.784 160.546 170.594 161.012 170.213C161.478 169.827 161.825 169.31 162.052 168.662C162.285 168.014 162.401 167.293 162.401 166.497C162.401 165.696 162.285 164.972 162.052 164.324C161.825 163.67 161.478 163.151 161.012 162.764C160.546 162.378 159.967 162.185 159.273 162.185C158.563 162.185 157.972 162.378 157.501 162.764C157.035 163.151 156.685 163.67 156.452 164.324C156.225 164.972 156.112 165.696 156.112 166.497C156.112 167.293 156.225 168.014 156.452 168.662C156.685 169.31 157.035 169.827 157.501 170.213C157.972 170.594 158.563 170.784 159.273 170.784ZM171.233 165.33V173H168.148V159.909H171.097V162.134H171.25C171.551 161.401 172.031 160.818 172.69 160.386C173.355 159.955 174.176 159.739 175.153 159.739C176.057 159.739 176.844 159.932 177.514 160.318C178.19 160.705 178.713 161.264 179.082 161.997C179.457 162.73 179.642 163.619 179.636 164.665V173H176.551V165.142C176.551 164.267 176.324 163.582 175.869 163.088C175.42 162.594 174.798 162.347 174.003 162.347C173.463 162.347 172.983 162.466 172.562 162.705C172.148 162.937 171.821 163.276 171.582 163.719C171.349 164.162 171.233 164.699 171.233 165.33ZM193.997 159.909L189.335 173H185.926L181.264 159.909H184.554L187.562 169.634H187.699L190.716 159.909H193.997ZM201.482 173.256C200.17 173.256 199.036 172.983 198.082 172.438C197.133 171.886 196.403 171.108 195.891 170.102C195.38 169.091 195.124 167.901 195.124 166.531C195.124 165.185 195.38 164.003 195.891 162.986C196.408 161.963 197.13 161.168 198.056 160.599C198.982 160.026 200.07 159.739 201.32 159.739C202.127 159.739 202.888 159.869 203.604 160.131C204.326 160.386 204.962 160.784 205.513 161.324C206.07 161.864 206.508 162.551 206.826 163.386C207.144 164.216 207.303 165.205 207.303 166.352V167.298H196.573V165.219H204.346C204.34 164.628 204.212 164.102 203.962 163.642C203.712 163.176 203.363 162.81 202.914 162.543C202.471 162.276 201.954 162.142 201.363 162.142C200.732 162.142 200.178 162.295 199.701 162.602C199.224 162.903 198.852 163.301 198.585 163.795C198.323 164.284 198.19 164.821 198.184 165.406V167.222C198.184 167.983 198.323 168.636 198.602 169.182C198.88 169.722 199.269 170.136 199.769 170.426C200.269 170.71 200.854 170.852 201.525 170.852C201.974 170.852 202.38 170.79 202.744 170.665C203.107 170.534 203.423 170.344 203.69 170.094C203.957 169.844 204.158 169.534 204.295 169.165L207.175 169.489C206.994 170.25 206.647 170.915 206.136 171.483C205.63 172.045 204.982 172.483 204.192 172.795C203.403 173.102 202.499 173.256 201.482 173.256ZM209.913 173V159.909H212.905V162.091H213.041C213.28 161.335 213.689 160.753 214.268 160.344C214.854 159.929 215.521 159.722 216.271 159.722C216.442 159.722 216.632 159.73 216.842 159.747C217.058 159.759 217.237 159.778 217.379 159.807V162.645C217.249 162.599 217.041 162.56 216.757 162.526C216.479 162.486 216.209 162.466 215.947 162.466C215.385 162.466 214.879 162.588 214.43 162.832C213.987 163.071 213.638 163.403 213.382 163.83C213.126 164.256 212.999 164.747 212.999 165.304V173H209.913ZM229.776 163.369L226.963 163.676C226.884 163.392 226.744 163.125 226.545 162.875C226.352 162.625 226.091 162.423 225.761 162.27C225.432 162.116 225.028 162.04 224.551 162.04C223.909 162.04 223.369 162.179 222.932 162.457C222.5 162.736 222.287 163.097 222.293 163.54C222.287 163.92 222.426 164.23 222.71 164.469C223 164.707 223.477 164.903 224.142 165.057L226.375 165.534C227.614 165.801 228.534 166.224 229.136 166.804C229.744 167.384 230.051 168.142 230.057 169.08C230.051 169.903 229.81 170.631 229.332 171.261C228.861 171.886 228.205 172.375 227.364 172.727C226.523 173.08 225.557 173.256 224.466 173.256C222.864 173.256 221.574 172.92 220.597 172.25C219.619 171.574 219.037 170.634 218.849 169.429L221.858 169.139C221.994 169.73 222.284 170.176 222.727 170.477C223.17 170.778 223.747 170.929 224.457 170.929C225.19 170.929 225.778 170.778 226.222 170.477C226.67 170.176 226.895 169.804 226.895 169.361C226.895 168.986 226.75 168.676 226.46 168.432C226.176 168.187 225.733 168 225.131 167.869L222.898 167.401C221.642 167.139 220.713 166.699 220.111 166.08C219.509 165.455 219.21 164.665 219.216 163.71C219.21 162.903 219.429 162.205 219.872 161.614C220.321 161.017 220.943 160.557 221.739 160.233C222.54 159.903 223.463 159.739 224.509 159.739C226.043 159.739 227.25 160.065 228.131 160.719C229.017 161.372 229.565 162.256 229.776 163.369ZM236.368 173.264C235.538 173.264 234.791 173.116 234.126 172.821C233.467 172.52 232.945 172.077 232.558 171.491C232.178 170.906 231.987 170.185 231.987 169.327C231.987 168.588 232.124 167.977 232.396 167.494C232.669 167.011 233.041 166.625 233.513 166.335C233.984 166.045 234.516 165.827 235.107 165.679C235.703 165.526 236.32 165.415 236.956 165.347C237.723 165.267 238.345 165.196 238.822 165.134C239.3 165.065 239.646 164.963 239.862 164.827C240.084 164.685 240.195 164.466 240.195 164.17V164.119C240.195 163.477 240.004 162.98 239.624 162.628C239.243 162.276 238.695 162.099 237.979 162.099C237.223 162.099 236.624 162.264 236.18 162.594C235.743 162.923 235.447 163.312 235.294 163.761L232.413 163.352C232.641 162.557 233.016 161.892 233.538 161.358C234.061 160.818 234.7 160.415 235.456 160.148C236.212 159.875 237.047 159.739 237.962 159.739C238.592 159.739 239.22 159.812 239.845 159.96C240.47 160.108 241.041 160.352 241.558 160.693C242.075 161.028 242.49 161.486 242.803 162.065C243.121 162.645 243.28 163.369 243.28 164.239V173H240.314V171.202H240.212C240.024 171.565 239.76 171.906 239.419 172.224C239.084 172.537 238.661 172.79 238.149 172.983C237.643 173.17 237.05 173.264 236.368 173.264ZM237.169 170.997C237.788 170.997 238.325 170.875 238.78 170.631C239.234 170.381 239.584 170.051 239.828 169.642C240.078 169.233 240.203 168.787 240.203 168.304V166.761C240.107 166.841 239.942 166.915 239.709 166.983C239.482 167.051 239.226 167.111 238.942 167.162C238.658 167.213 238.376 167.259 238.098 167.298C237.82 167.338 237.578 167.372 237.374 167.401C236.913 167.463 236.501 167.565 236.138 167.707C235.774 167.849 235.487 168.048 235.277 168.304C235.067 168.554 234.962 168.878 234.962 169.276C234.962 169.844 235.169 170.273 235.584 170.562C235.999 170.852 236.527 170.997 237.169 170.997ZM252.919 159.909V162.295H245.393V159.909H252.919ZM247.251 156.773H250.337V169.062C250.337 169.477 250.399 169.795 250.524 170.017C250.655 170.233 250.825 170.381 251.036 170.46C251.246 170.54 251.479 170.58 251.734 170.58C251.928 170.58 252.104 170.565 252.263 170.537C252.428 170.509 252.553 170.483 252.638 170.46L253.158 172.872C252.993 172.929 252.757 172.991 252.45 173.06C252.149 173.128 251.78 173.168 251.342 173.179C250.57 173.202 249.874 173.085 249.254 172.83C248.635 172.568 248.143 172.165 247.78 171.619C247.422 171.074 247.246 170.392 247.251 169.574V156.773ZM255.499 173V159.909H258.585V173H255.499ZM257.05 158.051C256.562 158.051 256.141 157.889 255.789 157.565C255.437 157.236 255.261 156.841 255.261 156.381C255.261 155.915 255.437 155.52 255.789 155.196C256.141 154.866 256.562 154.702 257.05 154.702C257.545 154.702 257.965 154.866 258.312 155.196C258.664 155.52 258.84 155.915 258.84 156.381C258.84 156.841 258.664 157.236 258.312 157.565C257.965 157.889 257.545 158.051 257.05 158.051ZM267.467 173.256C266.189 173.256 265.081 172.974 264.143 172.412C263.206 171.849 262.479 171.062 261.962 170.051C261.45 169.04 261.195 167.858 261.195 166.506C261.195 165.153 261.45 163.969 261.962 162.952C262.479 161.935 263.206 161.145 264.143 160.582C265.081 160.02 266.189 159.739 267.467 159.739C268.746 159.739 269.854 160.02 270.791 160.582C271.729 161.145 272.453 161.935 272.964 162.952C273.482 163.969 273.74 165.153 273.74 166.506C273.74 167.858 273.482 169.04 272.964 170.051C272.453 171.062 271.729 171.849 270.791 172.412C269.854 172.974 268.746 173.256 267.467 173.256ZM267.484 170.784C268.178 170.784 268.757 170.594 269.223 170.213C269.689 169.827 270.036 169.31 270.263 168.662C270.496 168.014 270.612 167.293 270.612 166.497C270.612 165.696 270.496 164.972 270.263 164.324C270.036 163.67 269.689 163.151 269.223 162.764C268.757 162.378 268.178 162.185 267.484 162.185C266.774 162.185 266.183 162.378 265.712 162.764C265.246 163.151 264.896 163.67 264.663 164.324C264.436 164.972 264.322 165.696 264.322 166.497C264.322 167.293 264.436 168.014 264.663 168.662C264.896 169.31 265.246 169.827 265.712 170.213C266.183 170.594 266.774 170.784 267.484 170.784ZM279.444 165.33V173H276.359V159.909H279.308V162.134H279.461C279.762 161.401 280.242 160.818 280.901 160.386C281.566 159.955 282.387 159.739 283.364 159.739C284.268 159.739 285.055 159.932 285.725 160.318C286.401 160.705 286.924 161.264 287.293 161.997C287.668 162.73 287.853 163.619 287.847 164.665V173H284.762V165.142C284.762 164.267 284.535 163.582 284.08 163.088C283.631 162.594 283.009 162.347 282.214 162.347C281.674 162.347 281.194 162.466 280.773 162.705C280.359 162.937 280.032 163.276 279.793 163.719C279.56 164.162 279.444 164.699 279.444 165.33Z" fill="#EFF0FA" style="fill:#EFF0FA;fill:color(display-p3 0.9373 0.9412 0.9804);fill-opacity:1;"/>
<path d="M35.2045 193.912V192.818H42.8408V193.912H39.6391V203H38.4062V193.912H35.2045ZM46.0079 198.406V203H44.8346V192.818H46.0079V196.557H46.1073C46.2863 196.162 46.5548 195.849 46.9127 195.617C47.274 195.382 47.7546 195.264 48.3545 195.264C48.8749 195.264 49.3306 195.369 49.7217 195.577C50.1128 195.783 50.416 196.099 50.6315 196.527C50.8502 196.951 50.9596 197.491 50.9596 198.148V203H49.7863V198.227C49.7863 197.621 49.6289 197.152 49.314 196.82C49.0025 196.486 48.5699 196.318 48.0164 196.318C47.632 196.318 47.2873 196.399 46.9823 196.562C46.6807 196.724 46.4421 196.961 46.2664 197.273C46.0941 197.584 46.0079 197.962 46.0079 198.406ZM56.5578 203.159C55.822 203.159 55.1873 202.997 54.6537 202.672C54.1234 202.344 53.714 201.886 53.4257 201.3C53.1407 200.71 52.9981 200.024 52.9981 199.241C52.9981 198.459 53.1407 197.77 53.4257 197.173C53.714 196.573 54.1151 196.106 54.6288 195.771C55.1459 195.433 55.7491 195.264 56.4385 195.264C56.8362 195.264 57.229 195.33 57.6167 195.463C58.0045 195.596 58.3575 195.811 58.6757 196.109C58.9939 196.404 59.2474 196.795 59.4363 197.283C59.6253 197.77 59.7197 198.37 59.7197 199.082V199.58H53.8334V198.565H58.5265C58.5265 198.134 58.4404 197.75 58.268 197.412C58.099 197.074 57.857 196.807 57.5422 196.612C57.2306 196.416 56.8627 196.318 56.4385 196.318C55.9711 196.318 55.5668 196.434 55.2254 196.666C54.8873 196.895 54.6272 197.193 54.4449 197.561C54.2626 197.929 54.1714 198.323 54.1714 198.744V199.42C54.1714 199.997 54.2709 200.486 54.4697 200.887C54.6719 201.285 54.952 201.588 55.3099 201.797C55.6679 202.002 56.0838 202.105 56.5578 202.105C56.866 202.105 57.1444 202.062 57.393 201.976C57.6449 201.886 57.862 201.754 58.0443 201.578C58.2266 201.399 58.3675 201.177 58.4669 200.912L59.6004 201.23C59.4811 201.615 59.2806 201.953 58.9988 202.244C58.7171 202.533 58.3691 202.758 57.9548 202.92C57.5405 203.08 57.0748 203.159 56.5578 203.159ZM61.7545 203V195.364H62.8881V196.517H62.9676C63.1068 196.139 63.3587 195.833 63.7233 195.597C64.0879 195.362 64.4988 195.244 64.9562 195.244C65.0424 195.244 65.1501 195.246 65.2794 195.249C65.4086 195.253 65.5064 195.258 65.5727 195.264V196.457C65.5329 196.447 65.4418 196.433 65.2993 196.413C65.1601 196.389 65.0126 196.378 64.8568 196.378C64.4856 196.378 64.1541 196.456 63.8625 196.612C63.5741 196.764 63.3454 196.976 63.1764 197.248C63.0107 197.516 62.9278 197.823 62.9278 198.168V203H61.7545ZM70.1828 203.159C69.447 203.159 68.8123 202.997 68.2787 202.672C67.7484 202.344 67.339 201.886 67.0507 201.3C66.7657 200.71 66.6231 200.024 66.6231 199.241C66.6231 198.459 66.7657 197.77 67.0507 197.173C67.339 196.573 67.7401 196.106 68.2538 195.771C68.7709 195.433 69.3741 195.264 70.0635 195.264C70.4612 195.264 70.854 195.33 71.2417 195.463C71.6295 195.596 71.9825 195.811 72.3007 196.109C72.6189 196.404 72.8724 196.795 73.0613 197.283C73.2503 197.77 73.3447 198.37 73.3447 199.082V199.58H67.4584V198.565H72.1515C72.1515 198.134 72.0654 197.75 71.893 197.412C71.724 197.074 71.482 196.807 71.1672 196.612C70.8556 196.416 70.4877 196.318 70.0635 196.318C69.5961 196.318 69.1918 196.434 68.8504 196.666C68.5123 196.895 68.2522 197.193 68.0699 197.561C67.8876 197.929 67.7964 198.323 67.7964 198.744V199.42C67.7964 199.997 67.8959 200.486 68.0947 200.887C68.2969 201.285 68.577 201.588 68.9349 201.797C69.2929 202.002 69.7088 202.105 70.1828 202.105C70.491 202.105 70.7694 202.062 71.018 201.976C71.2699 201.886 71.487 201.754 71.6693 201.578C71.8516 201.399 71.9925 201.177 72.0919 200.912L73.2254 201.23C73.1061 201.615 72.9056 201.953 72.6238 202.244C72.3421 202.533 71.9941 202.758 71.5798 202.92C71.1655 203.08 70.6998 203.159 70.1828 203.159ZM81.8142 203.179C81.3303 203.179 80.8911 203.088 80.4967 202.906C80.1023 202.72 79.7891 202.453 79.5571 202.105C79.3251 201.754 79.2091 201.33 79.2091 200.832C79.2091 200.395 79.2952 200.04 79.4676 199.768C79.6399 199.493 79.8703 199.278 80.1586 199.122C80.447 198.966 80.7652 198.85 81.1132 198.774C81.4645 198.695 81.8175 198.632 82.1721 198.585C82.6362 198.526 83.0123 198.481 83.3007 198.451C83.5924 198.418 83.8045 198.363 83.9371 198.287C84.0729 198.211 84.1409 198.078 84.1409 197.889V197.849C84.1409 197.359 84.0067 196.978 83.7382 196.706C83.473 196.434 83.0703 196.298 82.5301 196.298C81.97 196.298 81.5308 196.421 81.2126 196.666C80.8944 196.911 80.6707 197.173 80.5415 197.452L79.4278 197.054C79.6267 196.59 79.8918 196.229 80.2233 195.97C80.558 195.708 80.9226 195.526 81.317 195.423C81.7148 195.317 82.1059 195.264 82.4903 195.264C82.7356 195.264 83.0173 195.294 83.3355 195.354C83.657 195.41 83.9669 195.528 84.2652 195.707C84.5668 195.886 84.817 196.156 85.0159 196.517C85.2148 196.878 85.3142 197.362 85.3142 197.969V203H84.1409V201.966H84.0812C84.0017 202.132 83.8691 202.309 83.6835 202.498C83.4979 202.687 83.251 202.848 82.9427 202.98C82.6345 203.113 82.2583 203.179 81.8142 203.179ZM81.9932 202.125C82.4572 202.125 82.8483 202.034 83.1665 201.852C83.488 201.669 83.7299 201.434 83.8923 201.146C84.058 200.857 84.1409 200.554 84.1409 200.236V199.162C84.0912 199.222 83.9818 199.276 83.8128 199.326C83.647 199.372 83.4548 199.414 83.2361 199.45C83.0206 199.483 82.8102 199.513 82.6047 199.54C82.4025 199.563 82.2384 199.583 82.1125 199.599C81.8076 199.639 81.5225 199.704 81.2574 199.793C80.9955 199.879 80.7834 200.01 80.621 200.186C80.4619 200.358 80.3824 200.594 80.3824 200.892C80.3824 201.3 80.5332 201.608 80.8348 201.817C81.1397 202.022 81.5258 202.125 81.9932 202.125ZM87.7057 203V195.364H88.8392V196.517H88.9188C89.058 196.139 89.3099 195.833 89.6744 195.597C90.039 195.362 90.45 195.244 90.9074 195.244C90.9936 195.244 91.1013 195.246 91.2306 195.249C91.3598 195.253 91.4576 195.258 91.5239 195.264V196.457C91.4841 196.447 91.393 196.433 91.2504 196.413C91.1112 196.389 90.9637 196.378 90.808 196.378C90.4368 196.378 90.1053 196.456 89.8137 196.612C89.5253 196.764 89.2966 196.976 89.1276 197.248C88.9619 197.516 88.879 197.823 88.879 198.168V203H87.7057ZM96.134 203.159C95.3982 203.159 94.7635 202.997 94.2298 202.672C93.6995 202.344 93.2902 201.886 93.0019 201.3C92.7168 200.71 92.5743 200.024 92.5743 199.241C92.5743 198.459 92.7168 197.77 93.0019 197.173C93.2902 196.573 93.6913 196.106 94.205 195.771C94.722 195.433 95.3253 195.264 96.0146 195.264C96.4124 195.264 96.8051 195.33 97.1929 195.463C97.5807 195.596 97.9337 195.811 98.2519 196.109C98.57 196.404 98.8236 196.795 99.0125 197.283C99.2014 197.77 99.2959 198.37 99.2959 199.082V199.58H93.4095V198.565H98.1027C98.1027 198.134 98.0165 197.75 97.8442 197.412C97.6752 197.074 97.4332 196.807 97.1183 196.612C96.8068 196.416 96.4389 196.318 96.0146 196.318C95.5473 196.318 95.143 196.434 94.8016 196.666C94.4635 196.895 94.2033 197.193 94.021 197.561C93.8387 197.929 93.7476 198.323 93.7476 198.744V199.42C93.7476 199.997 93.847 200.486 94.0459 200.887C94.2481 201.285 94.5281 201.588 94.8861 201.797C95.2441 202.002 95.66 202.105 96.134 202.105C96.4422 202.105 96.7206 202.062 96.9692 201.976C97.2211 201.886 97.4382 201.754 97.6205 201.578C97.8028 201.399 97.9436 201.177 98.0431 200.912L99.1766 201.23C99.0573 201.615 98.8567 201.953 98.575 202.244C98.2933 202.533 97.9453 202.758 97.531 202.92C97.1167 203.08 96.651 203.159 96.134 203.159ZM106.691 198.406V203H105.518V195.364H106.652V196.557H106.751C106.93 196.169 107.202 195.857 107.566 195.622C107.931 195.384 108.402 195.264 108.978 195.264C109.495 195.264 109.948 195.37 110.336 195.582C110.723 195.791 111.025 196.109 111.241 196.537C111.456 196.961 111.564 197.498 111.564 198.148V203H110.39V198.227C110.39 197.627 110.235 197.16 109.923 196.825C109.611 196.487 109.184 196.318 108.64 196.318C108.266 196.318 107.931 196.399 107.636 196.562C107.344 196.724 107.114 196.961 106.945 197.273C106.776 197.584 106.691 197.962 106.691 198.406ZM117.06 203.159C116.371 203.159 115.766 202.995 115.245 202.667C114.728 202.339 114.324 201.88 114.032 201.29C113.744 200.7 113.6 200.01 113.6 199.222C113.6 198.426 113.744 197.732 114.032 197.138C114.324 196.545 114.728 196.085 115.245 195.756C115.766 195.428 116.371 195.264 117.06 195.264C117.749 195.264 118.353 195.428 118.87 195.756C119.39 196.085 119.794 196.545 120.083 197.138C120.374 197.732 120.52 198.426 120.52 199.222C120.52 200.01 120.374 200.7 120.083 201.29C119.794 201.88 119.39 202.339 118.87 202.667C118.353 202.995 117.749 203.159 117.06 203.159ZM117.06 202.105C117.584 202.105 118.014 201.971 118.353 201.702C118.691 201.434 118.941 201.081 119.103 200.643C119.266 200.206 119.347 199.732 119.347 199.222C119.347 198.711 119.266 198.236 119.103 197.795C118.941 197.354 118.691 196.998 118.353 196.726C118.014 196.454 117.584 196.318 117.06 196.318C116.536 196.318 116.105 196.454 115.767 196.726C115.429 196.998 115.179 197.354 115.017 197.795C114.854 198.236 114.773 198.711 114.773 199.222C114.773 199.732 114.854 200.206 115.017 200.643C115.179 201.081 115.429 201.434 115.767 201.702C116.105 201.971 116.536 202.105 117.06 202.105ZM126.749 203V195.364H127.882V196.557H127.982C128.141 196.149 128.398 195.833 128.752 195.607C129.107 195.379 129.533 195.264 130.03 195.264C130.534 195.264 130.953 195.379 131.288 195.607C131.626 195.833 131.889 196.149 132.078 196.557H132.158C132.353 196.162 132.647 195.849 133.038 195.617C133.429 195.382 133.898 195.264 134.445 195.264C135.127 195.264 135.686 195.478 136.12 195.906C136.554 196.33 136.771 196.991 136.771 197.889V203H135.598V197.889C135.598 197.326 135.444 196.923 135.136 196.681C134.828 196.439 134.465 196.318 134.047 196.318C133.51 196.318 133.094 196.481 132.799 196.805C132.504 197.127 132.357 197.535 132.357 198.028V203H131.163V197.77C131.163 197.336 131.023 196.986 130.741 196.721C130.459 196.452 130.096 196.318 129.652 196.318C129.347 196.318 129.062 196.399 128.797 196.562C128.535 196.724 128.323 196.95 128.161 197.238C128.002 197.523 127.922 197.853 127.922 198.227V203H126.749ZM142.368 203.159C141.633 203.159 140.998 202.997 140.464 202.672C139.934 202.344 139.525 201.886 139.236 201.3C138.951 200.71 138.809 200.024 138.809 199.241C138.809 198.459 138.951 197.77 139.236 197.173C139.525 196.573 139.926 196.106 140.439 195.771C140.956 195.433 141.56 195.264 142.249 195.264C142.647 195.264 143.04 195.33 143.427 195.463C143.815 195.596 144.168 195.811 144.486 196.109C144.804 196.404 145.058 196.795 145.247 197.283C145.436 197.77 145.53 198.37 145.53 199.082V199.58H139.644V198.565H144.337C144.337 198.134 144.251 197.75 144.079 197.412C143.91 197.074 143.668 196.807 143.353 196.612C143.041 196.416 142.673 196.318 142.249 196.318C141.782 196.318 141.377 196.434 141.036 196.666C140.698 196.895 140.438 197.193 140.255 197.561C140.073 197.929 139.982 198.323 139.982 198.744V199.42C139.982 199.997 140.081 200.486 140.28 200.887C140.482 201.285 140.763 201.588 141.12 201.797C141.478 202.002 141.894 202.105 142.368 202.105C142.677 202.105 142.955 202.062 143.204 201.976C143.455 201.886 143.673 201.754 143.855 201.578C144.037 201.399 144.178 201.177 144.277 200.912L145.411 201.23C145.292 201.615 145.091 201.953 144.809 202.244C144.528 202.533 144.18 202.758 143.765 202.92C143.351 203.08 142.885 203.159 142.368 203.159ZM152.974 197.074L151.92 197.372C151.854 197.196 151.756 197.026 151.627 196.86C151.501 196.691 151.329 196.552 151.11 196.442C150.891 196.333 150.611 196.278 150.27 196.278C149.802 196.278 149.413 196.386 149.101 196.602C148.793 196.814 148.639 197.084 148.639 197.412C148.639 197.704 148.745 197.934 148.957 198.103C149.169 198.272 149.501 198.413 149.951 198.526L151.085 198.804C151.768 198.97 152.276 199.223 152.611 199.565C152.946 199.903 153.113 200.339 153.113 200.872C153.113 201.31 152.987 201.701 152.736 202.045C152.487 202.39 152.139 202.662 151.691 202.861C151.244 203.06 150.724 203.159 150.13 203.159C149.352 203.159 148.707 202.99 148.196 202.652C147.686 202.314 147.363 201.82 147.227 201.17L148.341 200.892C148.447 201.303 148.647 201.611 148.942 201.817C149.241 202.022 149.63 202.125 150.111 202.125C150.657 202.125 151.092 202.009 151.413 201.777C151.738 201.542 151.9 201.26 151.9 200.932C151.9 200.667 151.807 200.445 151.622 200.266C151.436 200.083 151.151 199.947 150.767 199.858L149.494 199.56C148.795 199.394 148.281 199.137 147.953 198.789C147.628 198.438 147.466 197.999 147.466 197.472C147.466 197.041 147.587 196.66 147.829 196.328C148.074 195.997 148.407 195.737 148.828 195.548C149.252 195.359 149.733 195.264 150.27 195.264C151.025 195.264 151.619 195.43 152.049 195.761C152.484 196.093 152.792 196.53 152.974 197.074ZM160.539 197.074L159.485 197.372C159.418 197.196 159.321 197.026 159.191 196.86C159.065 196.691 158.893 196.552 158.674 196.442C158.456 196.333 158.175 196.278 157.834 196.278C157.367 196.278 156.977 196.386 156.666 196.602C156.358 196.814 156.203 197.084 156.203 197.412C156.203 197.704 156.309 197.934 156.522 198.103C156.734 198.272 157.065 198.413 157.516 198.526L158.649 198.804C159.332 198.97 159.841 199.223 160.176 199.565C160.51 199.903 160.678 200.339 160.678 200.872C160.678 201.31 160.552 201.701 160.3 202.045C160.051 202.39 159.703 202.662 159.256 202.861C158.809 203.06 158.288 203.159 157.695 203.159C156.916 203.159 156.271 202.99 155.761 202.652C155.251 202.314 154.927 201.82 154.791 201.17L155.905 200.892C156.011 201.303 156.212 201.611 156.507 201.817C156.805 202.022 157.194 202.125 157.675 202.125C158.222 202.125 158.656 202.009 158.978 201.777C159.302 201.542 159.465 201.26 159.465 200.932C159.465 200.667 159.372 200.445 159.186 200.266C159.001 200.083 158.716 199.947 158.331 199.858L157.059 199.56C156.359 199.394 155.845 199.137 155.517 198.789C155.193 198.438 155.03 197.999 155.03 197.472C155.03 197.041 155.151 196.66 155.393 196.328C155.638 195.997 155.971 195.737 156.392 195.548C156.817 195.359 157.297 195.264 157.834 195.264C158.59 195.264 159.183 195.43 159.614 195.761C160.048 196.093 160.356 196.53 160.539 197.074ZM164.941 203.179C164.457 203.179 164.018 203.088 163.624 202.906C163.229 202.72 162.916 202.453 162.684 202.105C162.452 201.754 162.336 201.33 162.336 200.832C162.336 200.395 162.422 200.04 162.595 199.768C162.767 199.493 162.997 199.278 163.286 199.122C163.574 198.966 163.892 198.85 164.24 198.774C164.591 198.695 164.944 198.632 165.299 198.585C165.763 198.526 166.139 198.481 166.428 198.451C166.719 198.418 166.931 198.363 167.064 198.287C167.2 198.211 167.268 198.078 167.268 197.889V197.849C167.268 197.359 167.134 196.978 166.865 196.706C166.6 196.434 166.197 196.298 165.657 196.298C165.097 196.298 164.658 196.421 164.34 196.666C164.021 196.911 163.798 197.173 163.668 197.452L162.555 197.054C162.754 196.59 163.019 196.229 163.35 195.97C163.685 195.708 164.05 195.526 164.444 195.423C164.842 195.317 165.233 195.264 165.617 195.264C165.863 195.264 166.144 195.294 166.462 195.354C166.784 195.41 167.094 195.528 167.392 195.707C167.694 195.886 167.944 196.156 168.143 196.517C168.342 196.878 168.441 197.362 168.441 197.969V203H167.268V201.966H167.208C167.129 202.132 166.996 202.309 166.81 202.498C166.625 202.687 166.378 202.848 166.07 202.98C165.761 203.113 165.385 203.179 164.941 203.179ZM165.12 202.125C165.584 202.125 165.975 202.034 166.293 201.852C166.615 201.669 166.857 201.434 167.019 201.146C167.185 200.857 167.268 200.554 167.268 200.236V199.162C167.218 199.222 167.109 199.276 166.94 199.326C166.774 199.372 166.582 199.414 166.363 199.45C166.148 199.483 165.937 199.513 165.732 199.54C165.529 199.563 165.365 199.583 165.239 199.599C164.935 199.639 164.649 199.704 164.384 199.793C164.122 199.879 163.91 200.01 163.748 200.186C163.589 200.358 163.509 200.594 163.509 200.892C163.509 201.3 163.66 201.608 163.962 201.817C164.267 202.022 164.653 202.125 165.12 202.125ZM173.915 206.023C173.348 206.023 172.861 205.95 172.453 205.804C172.046 205.661 171.706 205.473 171.434 205.237C171.166 205.005 170.952 204.757 170.793 204.491L171.728 203.835C171.834 203.974 171.968 204.134 172.13 204.312C172.293 204.495 172.515 204.652 172.796 204.785C173.081 204.921 173.454 204.989 173.915 204.989C174.532 204.989 175.04 204.839 175.441 204.541C175.842 204.243 176.043 203.776 176.043 203.139V201.588H175.943C175.857 201.727 175.735 201.9 175.576 202.105C175.42 202.307 175.194 202.488 174.899 202.647C174.608 202.803 174.213 202.881 173.716 202.881C173.1 202.881 172.546 202.735 172.056 202.443C171.568 202.152 171.182 201.727 170.897 201.17C170.616 200.614 170.475 199.937 170.475 199.142C170.475 198.36 170.612 197.679 170.887 197.099C171.162 196.515 171.545 196.065 172.036 195.746C172.526 195.425 173.093 195.264 173.736 195.264C174.233 195.264 174.628 195.347 174.919 195.513C175.214 195.675 175.44 195.861 175.595 196.07C175.755 196.275 175.877 196.444 175.963 196.577H176.083V195.364H177.216V203.219C177.216 203.875 177.067 204.409 176.769 204.82C176.474 205.234 176.076 205.537 175.576 205.729C175.078 205.925 174.525 206.023 173.915 206.023ZM173.875 201.827C174.346 201.827 174.744 201.719 175.068 201.504C175.393 201.288 175.64 200.978 175.809 200.574C175.978 200.17 176.063 199.686 176.063 199.122C176.063 198.572 175.98 198.086 175.814 197.665C175.648 197.245 175.403 196.915 175.078 196.676C174.754 196.437 174.353 196.318 173.875 196.318C173.378 196.318 172.964 196.444 172.632 196.696C172.304 196.948 172.057 197.286 171.892 197.71C171.729 198.134 171.648 198.605 171.648 199.122C171.648 199.652 171.731 200.121 171.897 200.529C172.066 200.933 172.314 201.252 172.642 201.484C172.974 201.712 173.385 201.827 173.875 201.827ZM182.816 203.159C182.08 203.159 181.445 202.997 180.911 202.672C180.381 202.344 179.972 201.886 179.684 201.3C179.398 200.71 179.256 200.024 179.256 199.241C179.256 198.459 179.398 197.77 179.684 197.173C179.972 196.573 180.373 196.106 180.887 195.771C181.404 195.433 182.007 195.264 182.696 195.264C183.094 195.264 183.487 195.33 183.875 195.463C184.262 195.596 184.615 195.811 184.934 196.109C185.252 196.404 185.505 196.795 185.694 197.283C185.883 197.77 185.978 198.37 185.978 199.082V199.58H180.091V198.565H184.784C184.784 198.134 184.698 197.75 184.526 197.412C184.357 197.074 184.115 196.807 183.8 196.612C183.488 196.416 183.121 196.318 182.696 196.318C182.229 196.318 181.825 196.434 181.483 196.666C181.145 196.895 180.885 197.193 180.703 197.561C180.52 197.929 180.429 198.323 180.429 198.744V199.42C180.429 199.997 180.529 200.486 180.728 200.887C180.93 201.285 181.21 201.588 181.568 201.797C181.926 202.002 182.342 202.105 182.816 202.105C183.124 202.105 183.402 202.062 183.651 201.976C183.903 201.886 184.12 201.754 184.302 201.578C184.484 201.399 184.625 201.177 184.725 200.912L185.858 201.23C185.739 201.615 185.538 201.953 185.257 202.244C184.975 202.533 184.627 202.758 184.213 202.92C183.798 203.08 183.333 203.159 182.816 203.159ZM193.421 197.074L192.367 197.372C192.301 197.196 192.203 197.026 192.074 196.86C191.948 196.691 191.776 196.552 191.557 196.442C191.338 196.333 191.058 196.278 190.717 196.278C190.25 196.278 189.86 196.386 189.549 196.602C189.24 196.814 189.086 197.084 189.086 197.412C189.086 197.704 189.192 197.934 189.404 198.103C189.617 198.272 189.948 198.413 190.399 198.526L191.532 198.804C192.215 198.97 192.724 199.223 193.059 199.565C193.393 199.903 193.561 200.339 193.561 200.872C193.561 201.31 193.435 201.701 193.183 202.045C192.934 202.39 192.586 202.662 192.139 202.861C191.691 203.06 191.171 203.159 190.578 203.159C189.799 203.159 189.154 202.99 188.644 202.652C188.133 202.314 187.81 201.82 187.674 201.17L188.788 200.892C188.894 201.303 189.094 201.611 189.389 201.817C189.688 202.022 190.077 202.125 190.558 202.125C191.105 202.125 191.539 202.009 191.86 201.777C192.185 201.542 192.348 201.26 192.348 200.932C192.348 200.667 192.255 200.445 192.069 200.266C191.884 200.083 191.599 199.947 191.214 199.858L189.941 199.56C189.242 199.394 188.728 199.137 188.4 198.789C188.075 198.438 187.913 197.999 187.913 197.472C187.913 197.041 188.034 196.66 188.276 196.328C188.521 195.997 188.854 195.737 189.275 195.548C189.699 195.359 190.18 195.264 190.717 195.264C191.473 195.264 192.066 195.43 192.497 195.761C192.931 196.093 193.239 196.53 193.421 197.074ZM200.938 198.406V203H199.764V192.818H200.938V196.557H201.037C201.216 196.162 201.484 195.849 201.842 195.617C202.204 195.382 202.684 195.264 203.284 195.264C203.805 195.264 204.26 195.369 204.651 195.577C205.042 195.783 205.346 196.099 205.561 196.527C205.78 196.951 205.889 197.491 205.889 198.148V203H204.716V198.227C204.716 197.621 204.559 197.152 204.244 196.82C203.932 196.486 203.5 196.318 202.946 196.318C202.562 196.318 202.217 196.399 201.912 196.562C201.61 196.724 201.372 196.961 201.196 197.273C201.024 197.584 200.938 197.962 200.938 198.406ZM211.487 203.159C210.752 203.159 210.117 202.997 209.583 202.672C209.053 202.344 208.644 201.886 208.355 201.3C208.07 200.71 207.928 200.024 207.928 199.241C207.928 198.459 208.07 197.77 208.355 197.173C208.644 196.573 209.045 196.106 209.559 195.771C210.076 195.433 210.679 195.264 211.368 195.264C211.766 195.264 212.159 195.33 212.546 195.463C212.934 195.596 213.287 195.811 213.605 196.109C213.924 196.404 214.177 196.795 214.366 197.283C214.555 197.77 214.649 198.37 214.649 199.082V199.58H208.763V198.565H213.456C213.456 198.134 213.37 197.75 213.198 197.412C213.029 197.074 212.787 196.807 212.472 196.612C212.16 196.416 211.792 196.318 211.368 196.318C210.901 196.318 210.496 196.434 210.155 196.666C209.817 196.895 209.557 197.193 209.375 197.561C209.192 197.929 209.101 198.323 209.101 198.744V199.42C209.101 199.997 209.201 200.486 209.399 200.887C209.602 201.285 209.882 201.588 210.24 201.797C210.598 202.002 211.014 202.105 211.487 202.105C211.796 202.105 212.074 202.062 212.323 201.976C212.575 201.886 212.792 201.754 212.974 201.578C213.156 201.399 213.297 201.177 213.397 200.912L214.53 201.23C214.411 201.615 214.21 201.953 213.929 202.244C213.647 202.533 213.299 202.758 212.884 202.92C212.47 203.08 212.005 203.159 211.487 203.159ZM216.684 203V195.364H217.818V196.517H217.897C218.036 196.139 218.288 195.833 218.653 195.597C219.018 195.362 219.429 195.244 219.886 195.244C219.972 195.244 220.08 195.246 220.209 195.249C220.338 195.253 220.436 195.258 220.502 195.264V196.457C220.463 196.447 220.371 196.433 220.229 196.413C220.09 196.389 219.942 196.378 219.786 196.378C219.415 196.378 219.084 196.456 218.792 196.612C218.504 196.764 218.275 196.976 218.106 197.248C217.94 197.516 217.858 197.823 217.858 198.168V203H216.684ZM225.112 203.159C224.377 203.159 223.742 202.997 223.208 202.672C222.678 202.344 222.269 201.886 221.98 201.3C221.695 200.71 221.553 200.024 221.553 199.241C221.553 198.459 221.695 197.77 221.98 197.173C222.269 196.573 222.67 196.106 223.184 195.771C223.701 195.433 224.304 195.264 224.993 195.264C225.391 195.264 225.784 195.33 226.171 195.463C226.559 195.596 226.912 195.811 227.23 196.109C227.549 196.404 227.802 196.795 227.991 197.283C228.18 197.77 228.274 198.37 228.274 199.082V199.58H222.388V198.565H227.081C227.081 198.134 226.995 197.75 226.823 197.412C226.654 197.074 226.412 196.807 226.097 196.612C225.785 196.416 225.417 196.318 224.993 196.318C224.526 196.318 224.121 196.434 223.78 196.666C223.442 196.895 223.182 197.193 223 197.561C222.817 197.929 222.726 198.323 222.726 198.744V199.42C222.726 199.997 222.826 200.486 223.024 200.887C223.227 201.285 223.507 201.588 223.865 201.797C224.223 202.002 224.639 202.105 225.112 202.105C225.421 202.105 225.699 202.062 225.948 201.976C226.2 201.886 226.417 201.754 226.599 201.578C226.781 201.399 226.922 201.177 227.022 200.912L228.155 201.23C228.036 201.615 227.835 201.953 227.554 202.244C227.272 202.533 226.924 202.758 226.509 202.92C226.095 203.08 225.63 203.159 225.112 203.159ZM235.252 205.864C235.054 205.864 234.876 205.847 234.72 205.814C234.565 205.784 234.457 205.754 234.397 205.724L234.696 204.69C234.981 204.763 235.233 204.79 235.451 204.77C235.67 204.75 235.864 204.652 236.033 204.477C236.205 204.304 236.363 204.024 236.505 203.636L236.724 203.04L233.9 195.364H235.173L237.281 201.449H237.36L239.468 195.364H240.741L237.5 204.114C237.354 204.508 237.173 204.835 236.958 205.093C236.742 205.355 236.492 205.549 236.207 205.675C235.925 205.801 235.607 205.864 235.252 205.864ZM245.468 203.159C244.732 203.159 244.097 202.997 243.564 202.672C243.034 202.344 242.624 201.886 242.336 201.3C242.051 200.71 241.908 200.024 241.908 199.241C241.908 198.459 242.051 197.77 242.336 197.173C242.624 196.573 243.025 196.106 243.539 195.771C244.056 195.433 244.659 195.264 245.349 195.264C245.746 195.264 246.139 195.33 246.527 195.463C246.915 195.596 247.268 195.811 247.586 196.109C247.904 196.404 248.158 196.795 248.347 197.283C248.535 197.77 248.63 198.37 248.63 199.082V199.58H242.744V198.565H247.437C247.437 198.134 247.351 197.75 247.178 197.412C247.009 197.074 246.767 196.807 246.452 196.612C246.141 196.416 245.773 196.318 245.349 196.318C244.881 196.318 244.477 196.434 244.136 196.666C243.797 196.895 243.537 197.193 243.355 197.561C243.173 197.929 243.082 198.323 243.082 198.744V199.42C243.082 199.997 243.181 200.486 243.38 200.887C243.582 201.285 243.862 201.588 244.22 201.797C244.578 202.002 244.994 202.105 245.468 202.105C245.776 202.105 246.055 202.062 246.303 201.976C246.555 201.886 246.772 201.754 246.954 201.578C247.137 201.399 247.278 201.177 247.377 200.912L248.511 201.23C248.391 201.615 248.191 201.953 247.909 202.244C247.627 202.533 247.279 202.758 246.865 202.92C246.451 203.08 245.985 203.159 245.468 203.159ZM253.986 195.364V196.358H250.028V195.364H253.986ZM251.182 193.534H252.355V200.812C252.355 201.144 252.403 201.393 252.499 201.558C252.599 201.721 252.725 201.83 252.877 201.886C253.033 201.939 253.197 201.966 253.369 201.966C253.498 201.966 253.605 201.959 253.687 201.946C253.77 201.929 253.837 201.916 253.886 201.906L254.125 202.96C254.045 202.99 253.934 203.02 253.792 203.05C253.649 203.083 253.469 203.099 253.25 203.099C252.918 203.099 252.594 203.028 252.275 202.886C251.961 202.743 251.699 202.526 251.49 202.234C251.284 201.943 251.182 201.575 251.182 201.131V193.534ZM256.856 203.08C256.61 203.08 256.4 202.992 256.224 202.816C256.049 202.64 255.961 202.43 255.961 202.185C255.961 201.939 256.049 201.729 256.224 201.553C256.4 201.378 256.61 201.29 256.856 201.29C257.101 201.29 257.311 201.378 257.487 201.553C257.663 201.729 257.751 201.939 257.751 202.185C257.751 202.347 257.709 202.496 257.626 202.632C257.547 202.768 257.439 202.877 257.303 202.96C257.171 203.04 257.021 203.08 256.856 203.08ZM270.021 195.364C269.961 194.86 269.719 194.469 269.295 194.19C268.871 193.912 268.35 193.773 267.734 193.773C267.283 193.773 266.889 193.846 266.551 193.991C266.216 194.137 265.954 194.338 265.765 194.593C265.58 194.848 265.487 195.138 265.487 195.463C265.487 195.735 265.551 195.969 265.681 196.164C265.813 196.356 265.982 196.517 266.188 196.646C266.393 196.772 266.609 196.877 266.834 196.96C267.059 197.039 267.267 197.104 267.456 197.153L268.49 197.432C268.755 197.501 269.05 197.598 269.375 197.72C269.703 197.843 270.016 198.01 270.314 198.222C270.616 198.431 270.864 198.7 271.06 199.028C271.255 199.356 271.353 199.759 271.353 200.236C271.353 200.786 271.209 201.283 270.921 201.727C270.636 202.171 270.218 202.524 269.668 202.786C269.121 203.048 268.456 203.179 267.674 203.179C266.945 203.179 266.314 203.061 265.78 202.826C265.25 202.591 264.832 202.263 264.527 201.842C264.226 201.421 264.055 200.932 264.015 200.375H265.288C265.321 200.759 265.45 201.078 265.676 201.33C265.904 201.578 266.193 201.764 266.541 201.886C266.892 202.006 267.27 202.065 267.674 202.065C268.145 202.065 268.568 201.989 268.942 201.837C269.317 201.681 269.613 201.465 269.832 201.19C270.051 200.912 270.16 200.587 270.16 200.216C270.16 199.878 270.066 199.603 269.877 199.391C269.688 199.179 269.439 199.006 269.131 198.874C268.823 198.741 268.49 198.625 268.132 198.526L266.879 198.168C266.083 197.939 265.454 197.612 264.99 197.188C264.526 196.764 264.294 196.209 264.294 195.523C264.294 194.953 264.448 194.455 264.756 194.031C265.068 193.604 265.485 193.272 266.009 193.037C266.536 192.798 267.124 192.679 267.774 192.679C268.43 192.679 269.013 192.797 269.524 193.032C270.034 193.264 270.438 193.582 270.737 193.987C271.038 194.391 271.197 194.85 271.214 195.364H270.021ZM276.792 195.364V196.358H272.835V195.364H276.792ZM273.988 193.534H275.162V200.812C275.162 201.144 275.21 201.393 275.306 201.558C275.405 201.721 275.531 201.83 275.684 201.886C275.839 201.939 276.004 201.966 276.176 201.966C276.305 201.966 276.411 201.959 276.494 201.946C276.577 201.929 276.643 201.916 276.693 201.906L276.932 202.96C276.852 202.99 276.741 203.02 276.598 203.05C276.456 203.083 276.275 203.099 276.057 203.099C275.725 203.099 275.4 203.028 275.082 202.886C274.767 202.743 274.505 202.526 274.297 202.234C274.091 201.943 273.988 201.575 273.988 201.131V193.534ZM281.054 203.179C280.571 203.179 280.131 203.088 279.737 202.906C279.343 202.72 279.029 202.453 278.797 202.105C278.565 201.754 278.449 201.33 278.449 200.832C278.449 200.395 278.535 200.04 278.708 199.768C278.88 199.493 279.111 199.278 279.399 199.122C279.687 198.966 280.005 198.85 280.353 198.774C280.705 198.695 281.058 198.632 281.412 198.585C281.876 198.526 282.253 198.481 282.541 198.451C282.833 198.418 283.045 198.363 283.177 198.287C283.313 198.211 283.381 198.078 283.381 197.889V197.849C283.381 197.359 283.247 196.978 282.978 196.706C282.713 196.434 282.311 196.298 281.77 196.298C281.21 196.298 280.771 196.421 280.453 196.666C280.135 196.911 279.911 197.173 279.782 197.452L278.668 197.054C278.867 196.59 279.132 196.229 279.464 195.97C279.798 195.708 280.163 195.526 280.557 195.423C280.955 195.317 281.346 195.264 281.731 195.264C281.976 195.264 282.258 195.294 282.576 195.354C282.897 195.41 283.207 195.528 283.505 195.707C283.807 195.886 284.057 196.156 284.256 196.517C284.455 196.878 284.554 197.362 284.554 197.969V203H283.381V201.966H283.321C283.242 202.132 283.109 202.309 282.924 202.498C282.738 202.687 282.491 202.848 282.183 202.98C281.875 203.113 281.499 203.179 281.054 203.179ZM281.233 202.125C281.697 202.125 282.089 202.034 282.407 201.852C282.728 201.669 282.97 201.434 283.133 201.146C283.298 200.857 283.381 200.554 283.381 200.236V199.162C283.331 199.222 283.222 199.276 283.053 199.326C282.887 199.372 282.695 199.414 282.476 199.45C282.261 199.483 282.05 199.513 281.845 199.54C281.643 199.563 281.479 199.583 281.353 199.599C281.048 199.639 280.763 199.704 280.498 199.793C280.236 199.879 280.024 200.01 279.861 200.186C279.702 200.358 279.623 200.594 279.623 200.892C279.623 201.3 279.773 201.608 280.075 201.817C280.38 202.022 280.766 202.125 281.233 202.125ZM286.946 203V195.364H288.079V196.517H288.159C288.298 196.139 288.55 195.833 288.915 195.597C289.279 195.362 289.69 195.244 290.148 195.244C290.234 195.244 290.342 195.246 290.471 195.249C290.6 195.253 290.698 195.258 290.764 195.264V196.457C290.724 196.447 290.633 196.433 290.491 196.413C290.351 196.389 290.204 196.378 290.048 196.378C289.677 196.378 289.346 196.456 289.054 196.612C288.766 196.764 288.537 196.976 288.368 197.248C288.202 197.516 288.119 197.823 288.119 198.168V203H286.946ZM296.204 195.364V196.358H292.247V195.364H296.204ZM293.4 193.534H294.574V200.812C294.574 201.144 294.622 201.393 294.718 201.558C294.817 201.721 294.943 201.83 295.096 201.886C295.252 201.939 295.416 201.966 295.588 201.966C295.717 201.966 295.823 201.959 295.906 201.946C295.989 201.929 296.055 201.916 296.105 201.906L296.344 202.96C296.264 202.99 296.153 203.02 296.011 203.05C295.868 203.083 295.687 203.099 295.469 203.099C295.137 203.099 294.812 203.028 294.494 202.886C294.179 202.743 293.918 202.526 293.709 202.234C293.503 201.943 293.4 201.575 293.4 201.131V193.534ZM304.654 203.179C304.17 203.179 303.731 203.088 303.337 202.906C302.942 202.72 302.629 202.453 302.397 202.105C302.165 201.754 302.049 201.33 302.049 200.832C302.049 200.395 302.135 200.04 302.307 199.768C302.48 199.493 302.71 199.278 302.998 199.122C303.287 198.966 303.605 198.85 303.953 198.774C304.304 198.695 304.657 198.632 305.012 198.585C305.476 198.526 305.852 198.481 306.141 198.451C306.432 198.418 306.644 198.363 306.777 198.287C306.913 198.211 306.981 198.078 306.981 197.889V197.849C306.981 197.359 306.847 196.978 306.578 196.706C306.313 196.434 305.91 196.298 305.37 196.298C304.81 196.298 304.371 196.421 304.052 196.666C303.734 196.911 303.511 197.173 303.381 197.452L302.268 197.054C302.467 196.59 302.732 196.229 303.063 195.97C303.398 195.708 303.762 195.526 304.157 195.423C304.555 195.317 304.946 195.264 305.33 195.264C305.575 195.264 305.857 195.294 306.175 195.354C306.497 195.41 306.807 195.528 307.105 195.707C307.407 195.886 307.657 196.156 307.856 196.517C308.055 196.878 308.154 197.362 308.154 197.969V203H306.981V201.966H306.921C306.842 202.132 306.709 202.309 306.523 202.498C306.338 202.687 306.091 202.848 305.783 202.98C305.474 203.113 305.098 203.179 304.654 203.179ZM304.833 202.125C305.297 202.125 305.688 202.034 306.006 201.852C306.328 201.669 306.57 201.434 306.732 201.146C306.898 200.857 306.981 200.554 306.981 200.236V199.162C306.931 199.222 306.822 199.276 306.653 199.326C306.487 199.372 306.295 199.414 306.076 199.45C305.86 199.483 305.65 199.513 305.445 199.54C305.242 199.563 305.078 199.583 304.952 199.599C304.647 199.639 304.362 199.704 304.097 199.793C303.835 199.879 303.623 200.01 303.461 200.186C303.302 200.358 303.222 200.594 303.222 200.892C303.222 201.3 303.373 201.608 303.675 201.817C303.98 202.022 304.366 202.125 304.833 202.125ZM51.6839 223.159C50.968 223.159 50.3516 222.99 49.8345 222.652C49.3175 222.314 48.9197 221.848 48.6413 221.255C48.3629 220.662 48.2237 219.984 48.2237 219.222C48.2237 218.446 48.3662 217.762 48.6513 217.168C48.9396 216.572 49.3407 216.106 49.8544 215.771C50.3714 215.433 50.9747 215.264 51.6641 215.264C52.201 215.264 52.6849 215.364 53.1158 215.562C53.5466 215.761 53.8996 216.04 54.1747 216.398C54.4498 216.756 54.6205 217.173 54.6868 217.651H53.5135C53.424 217.303 53.2251 216.994 52.9169 216.726C52.612 216.454 52.201 216.318 51.6839 216.318C51.2266 216.318 50.8255 216.437 50.4808 216.676C50.1394 216.911 49.8726 217.245 49.6804 217.675C49.4915 218.103 49.397 218.605 49.397 219.182C49.397 219.772 49.4898 220.286 49.6754 220.723C49.8643 221.161 50.1295 221.5 50.4709 221.742C50.8156 221.984 51.2199 222.105 51.6839 222.105C51.9889 222.105 52.2656 222.052 52.5142 221.946C52.7628 221.84 52.9732 221.688 53.1456 221.489C53.3179 221.29 53.4406 221.051 53.5135 220.773H54.6868C54.6205 221.223 54.4564 221.629 54.1946 221.991C53.9361 222.349 53.593 222.634 53.1655 222.846C52.7412 223.055 52.2474 223.159 51.6839 223.159ZM59.7543 223.159C59.0649 223.159 58.46 222.995 57.9396 222.667C57.4226 222.339 57.0182 221.88 56.7266 221.29C56.4382 220.7 56.294 220.01 56.294 219.222C56.294 218.426 56.4382 217.732 56.7266 217.138C57.0182 216.545 57.4226 216.085 57.9396 215.756C58.46 215.428 59.0649 215.264 59.7543 215.264C60.4437 215.264 61.0469 215.428 61.5639 215.756C62.0843 216.085 62.4886 216.545 62.777 217.138C63.0687 217.732 63.2145 218.426 63.2145 219.222C63.2145 220.01 63.0687 220.7 62.777 221.29C62.4886 221.88 62.0843 222.339 61.5639 222.667C61.0469 222.995 60.4437 223.159 59.7543 223.159ZM59.7543 222.105C60.2779 222.105 60.7088 221.971 61.0469 221.702C61.3849 221.434 61.6352 221.081 61.7976 220.643C61.96 220.206 62.0412 219.732 62.0412 219.222C62.0412 218.711 61.96 218.236 61.7976 217.795C61.6352 217.354 61.3849 216.998 61.0469 216.726C60.7088 216.454 60.2779 216.318 59.7543 216.318C59.2306 216.318 58.7997 216.454 58.4616 216.726C58.1236 216.998 57.8733 217.354 57.7109 217.795C57.5485 218.236 57.4673 218.711 57.4673 219.222C57.4673 219.732 57.5485 220.206 57.7109 220.643C57.8733 221.081 58.1236 221.434 58.4616 221.702C58.7997 221.971 59.2306 222.105 59.7543 222.105ZM66.4288 218.406V223H65.2555V215.364H66.389V216.557H66.4885C66.6674 216.169 66.9392 215.857 67.3038 215.622C67.6684 215.384 68.139 215.264 68.7157 215.264C69.2328 215.264 69.6852 215.37 70.073 215.582C70.4608 215.791 70.7624 216.109 70.9778 216.537C71.1932 216.961 71.301 217.498 71.301 218.148V223H70.1277V218.227C70.1277 217.627 69.9719 217.16 69.6603 216.825C69.3488 216.487 68.9212 216.318 68.3777 216.318C68.0031 216.318 67.6684 216.399 67.3734 216.562C67.0817 216.724 66.8514 216.961 66.6824 217.273C66.5133 217.584 66.4288 217.962 66.4288 218.406ZM79.6658 215.364L76.842 223H75.6488L72.8249 215.364H74.0977L76.2056 221.449H76.2852L78.3931 215.364H79.6658ZM84.3928 223.159C83.657 223.159 83.0223 222.997 82.4886 222.672C81.9583 222.344 81.549 221.886 81.2607 221.3C80.9756 220.71 80.8331 220.024 80.8331 219.241C80.8331 218.459 80.9756 217.77 81.2607 217.173C81.549 216.573 81.95 216.106 82.4638 215.771C82.9808 215.433 83.584 215.264 84.2734 215.264C84.6712 215.264 85.0639 215.33 85.4517 215.463C85.8395 215.596 86.1925 215.811 86.5107 216.109C86.8288 216.404 87.0824 216.795 87.2713 217.283C87.4602 217.77 87.5547 218.37 87.5547 219.082V219.58H81.6683V218.565H86.3615C86.3615 218.134 86.2753 217.75 86.103 217.412C85.9339 217.074 85.692 216.807 85.3771 216.612C85.0656 216.416 84.6977 216.318 84.2734 216.318C83.8061 216.318 83.4018 216.434 83.0604 216.666C82.7223 216.895 82.4621 217.193 82.2798 217.561C82.0975 217.929 82.0064 218.323 82.0064 218.744V219.42C82.0064 219.997 82.1058 220.486 82.3047 220.887C82.5069 221.285 82.7869 221.588 83.1449 221.797C83.5028 222.002 83.9188 222.105 84.3928 222.105C84.701 222.105 84.9794 222.062 85.228 221.976C85.4799 221.886 85.697 221.754 85.8793 221.578C86.0616 221.399 86.2024 221.177 86.3018 220.912L87.4354 221.23C87.3161 221.615 87.1155 221.953 86.8338 222.244C86.5521 222.533 86.2041 222.758 85.7898 222.92C85.3755 223.08 84.9098 223.159 84.3928 223.159ZM89.5895 223V215.364H90.723V216.517H90.8026C90.9418 216.139 91.1937 215.833 91.5582 215.597C91.9228 215.362 92.3338 215.244 92.7912 215.244C92.8774 215.244 92.9851 215.246 93.1143 215.249C93.2436 215.253 93.3414 215.258 93.4077 215.264V216.457C93.3679 216.447 93.2768 216.433 93.1342 216.413C92.995 216.389 92.8475 216.378 92.6918 216.378C92.3205 216.378 91.9891 216.456 91.6974 216.612C91.4091 216.764 91.1804 216.976 91.0114 217.248C90.8456 217.516 90.7628 217.823 90.7628 218.168V223H89.5895ZM100.458 217.074L99.4036 217.372C99.3373 217.196 99.2395 217.026 99.1103 216.86C98.9843 216.691 98.812 216.552 98.5932 216.442C98.3745 216.333 98.0944 216.278 97.753 216.278C97.2857 216.278 96.8962 216.386 96.5847 216.602C96.2765 216.814 96.1223 217.084 96.1223 217.412C96.1223 217.704 96.2284 217.934 96.4405 218.103C96.6526 218.272 96.9841 218.413 97.4348 218.526L98.5684 218.804C99.2511 218.97 99.7599 219.223 100.095 219.565C100.429 219.903 100.597 220.339 100.597 220.872C100.597 221.31 100.471 221.701 100.219 222.045C99.9703 222.39 99.6223 222.662 99.1749 222.861C98.7275 223.06 98.2071 223.159 97.6138 223.159C96.8349 223.159 96.1903 222.99 95.6799 222.652C95.1694 222.314 94.8463 221.82 94.7104 221.17L95.824 220.892C95.9301 221.303 96.1306 221.611 96.4256 221.817C96.7239 222.022 97.1133 222.125 97.5939 222.125C98.1408 222.125 98.575 222.009 98.8965 221.777C99.2213 221.542 99.3837 221.26 99.3837 220.932C99.3837 220.667 99.2909 220.445 99.1053 220.266C98.9197 220.083 98.6346 219.947 98.2502 219.858L96.9775 219.56C96.2781 219.394 95.7644 219.137 95.4363 218.789C95.1114 218.438 94.949 217.999 94.949 217.472C94.949 217.041 95.07 216.66 95.312 216.328C95.5572 215.997 95.8903 215.737 96.3113 215.548C96.7355 215.359 97.2161 215.264 97.753 215.264C98.5087 215.264 99.102 215.43 99.5328 215.761C99.967 216.093 100.275 216.53 100.458 217.074ZM104.86 223.179C104.376 223.179 103.937 223.088 103.543 222.906C103.148 222.72 102.835 222.453 102.603 222.105C102.371 221.754 102.255 221.33 102.255 220.832C102.255 220.395 102.341 220.04 102.513 219.768C102.686 219.493 102.916 219.278 103.205 219.122C103.493 218.966 103.811 218.85 104.159 218.774C104.51 218.695 104.863 218.632 105.218 218.585C105.682 218.526 106.058 218.481 106.347 218.451C106.638 218.418 106.85 218.363 106.983 218.287C107.119 218.211 107.187 218.078 107.187 217.889V217.849C107.187 217.359 107.053 216.978 106.784 216.706C106.519 216.434 106.116 216.298 105.576 216.298C105.016 216.298 104.577 216.421 104.259 216.666C103.94 216.911 103.717 217.173 103.587 217.452L102.474 217.054C102.673 216.59 102.938 216.229 103.269 215.97C103.604 215.708 103.969 215.526 104.363 215.423C104.761 215.317 105.152 215.264 105.536 215.264C105.781 215.264 106.063 215.294 106.381 215.354C106.703 215.41 107.013 215.528 107.311 215.707C107.613 215.886 107.863 216.156 108.062 216.517C108.261 216.878 108.36 217.362 108.36 217.969V223H107.187V221.966H107.127C107.048 222.132 106.915 222.309 106.729 222.498C106.544 222.687 106.297 222.848 105.989 222.98C105.68 223.113 105.304 223.179 104.86 223.179ZM105.039 222.125C105.503 222.125 105.894 222.034 106.212 221.852C106.534 221.669 106.776 221.434 106.938 221.146C107.104 220.857 107.187 220.554 107.187 220.236V219.162C107.137 219.222 107.028 219.276 106.859 219.326C106.693 219.372 106.501 219.414 106.282 219.45C106.067 219.483 105.856 219.513 105.651 219.54C105.448 219.563 105.284 219.583 105.158 219.599C104.853 219.639 104.568 219.704 104.303 219.793C104.041 219.879 103.829 220.01 103.667 220.186C103.508 220.358 103.428 220.594 103.428 220.892C103.428 221.3 103.579 221.608 103.881 221.817C104.186 222.022 104.572 222.125 105.039 222.125ZM114.073 215.364V216.358H110.115V215.364H114.073ZM111.269 213.534H112.442V220.812C112.442 221.144 112.49 221.393 112.586 221.558C112.686 221.721 112.811 221.83 112.964 221.886C113.12 221.939 113.284 221.966 113.456 221.966C113.585 221.966 113.691 221.959 113.774 221.946C113.857 221.929 113.923 221.916 113.973 221.906L114.212 222.96C114.132 222.99 114.021 223.02 113.879 223.05C113.736 223.083 113.556 223.099 113.337 223.099C113.005 223.099 112.681 223.028 112.362 222.886C112.048 222.743 111.786 222.526 111.577 222.234C111.371 221.943 111.269 221.575 111.269 221.131V213.534ZM116.088 223V215.364H117.261V223H116.088ZM116.684 214.091C116.455 214.091 116.258 214.013 116.093 213.857C115.93 213.701 115.849 213.514 115.849 213.295C115.849 213.077 115.93 212.889 116.093 212.734C116.258 212.578 116.455 212.5 116.684 212.5C116.913 212.5 117.108 212.578 117.271 212.734C117.436 212.889 117.519 213.077 117.519 213.295C117.519 213.514 117.436 213.701 117.271 213.857C117.108 214.013 116.913 214.091 116.684 214.091ZM122.762 223.159C122.073 223.159 121.468 222.995 120.947 222.667C120.43 222.339 120.026 221.88 119.734 221.29C119.446 220.7 119.302 220.01 119.302 219.222C119.302 218.426 119.446 217.732 119.734 217.138C120.026 216.545 120.43 216.085 120.947 215.756C121.468 215.428 122.073 215.264 122.762 215.264C123.451 215.264 124.055 215.428 124.572 215.756C125.092 216.085 125.496 216.545 125.785 217.138C126.076 217.732 126.222 218.426 126.222 219.222C126.222 220.01 126.076 220.7 125.785 221.29C125.496 221.88 125.092 222.339 124.572 222.667C124.055 222.995 123.451 223.159 122.762 223.159ZM122.762 222.105C123.286 222.105 123.717 221.971 124.055 221.702C124.393 221.434 124.643 221.081 124.805 220.643C124.968 220.206 125.049 219.732 125.049 219.222C125.049 218.711 124.968 218.236 124.805 217.795C124.643 217.354 124.393 216.998 124.055 216.726C123.717 216.454 123.286 216.318 122.762 216.318C122.238 216.318 121.808 216.454 121.469 216.726C121.131 216.998 120.881 217.354 120.719 217.795C120.556 218.236 120.475 218.711 120.475 219.222C120.475 219.732 120.556 220.206 120.719 220.643C120.881 221.081 121.131 221.434 121.469 221.702C121.808 221.971 122.238 222.105 122.762 222.105ZM129.437 218.406V223H128.263V215.364H129.397V216.557H129.496C129.675 216.169 129.947 215.857 130.312 215.622C130.676 215.384 131.147 215.264 131.724 215.264C132.241 215.264 132.693 215.37 133.081 215.582C133.469 215.791 133.77 216.109 133.986 216.537C134.201 216.961 134.309 217.498 134.309 218.148V223H133.135V218.227C133.135 217.627 132.98 217.16 132.668 216.825C132.357 216.487 131.929 216.318 131.385 216.318C131.011 216.318 130.676 216.399 130.381 216.562C130.09 216.724 129.859 216.961 129.69 217.273C129.521 217.584 129.437 217.962 129.437 218.406ZM141.049 223V212.818H142.223V216.577H142.322C142.408 216.444 142.528 216.275 142.68 216.07C142.836 215.861 143.058 215.675 143.346 215.513C143.638 215.347 144.032 215.264 144.529 215.264C145.172 215.264 145.739 215.425 146.23 215.746C146.72 216.068 147.103 216.524 147.378 217.114C147.653 217.704 147.791 218.4 147.791 219.202C147.791 220.01 147.653 220.711 147.378 221.305C147.103 221.895 146.722 222.352 146.235 222.677C145.748 222.998 145.186 223.159 144.549 223.159C144.059 223.159 143.666 223.078 143.371 222.915C143.076 222.75 142.849 222.562 142.69 222.354C142.531 222.142 142.408 221.966 142.322 221.827H142.183V223H141.049ZM142.203 219.182C142.203 219.759 142.287 220.267 142.456 220.708C142.625 221.146 142.872 221.489 143.197 221.737C143.522 221.982 143.92 222.105 144.39 222.105C144.881 222.105 145.29 221.976 145.618 221.717C145.95 221.455 146.198 221.104 146.364 220.663C146.533 220.219 146.618 219.725 146.618 219.182C146.618 218.645 146.535 218.161 146.369 217.73C146.207 217.296 145.96 216.953 145.628 216.701C145.3 216.446 144.887 216.318 144.39 216.318C143.913 216.318 143.512 216.439 143.187 216.681C142.862 216.92 142.617 217.254 142.451 217.685C142.286 218.113 142.203 218.612 142.203 219.182ZM150.318 225.864C150.119 225.864 149.942 225.847 149.786 225.814C149.63 225.784 149.522 225.754 149.463 225.724L149.761 224.69C150.046 224.763 150.298 224.79 150.517 224.77C150.735 224.75 150.929 224.652 151.098 224.477C151.271 224.304 151.428 224.024 151.571 223.636L151.789 223.04L148.966 215.364H150.238L152.346 221.449H152.426L154.534 215.364H155.806L152.565 224.114C152.419 224.508 152.239 224.835 152.023 225.093C151.808 225.355 151.557 225.549 151.272 225.675C150.991 225.801 150.672 225.864 150.318 225.864ZM167.202 217.074L166.148 217.372C166.081 217.196 165.984 217.026 165.854 216.86C165.728 216.691 165.556 216.552 165.337 216.442C165.119 216.333 164.839 216.278 164.497 216.278C164.03 216.278 163.64 216.386 163.329 216.602C163.021 216.814 162.866 217.084 162.866 217.412C162.866 217.704 162.973 217.934 163.185 218.103C163.397 218.272 163.728 218.413 164.179 218.526L165.312 218.804C165.995 218.97 166.504 219.223 166.839 219.565C167.174 219.903 167.341 220.339 167.341 220.872C167.341 221.31 167.215 221.701 166.963 222.045C166.714 222.39 166.366 222.662 165.919 222.861C165.472 223.06 164.951 223.159 164.358 223.159C163.579 223.159 162.934 222.99 162.424 222.652C161.914 222.314 161.59 221.82 161.455 221.17L162.568 220.892C162.674 221.303 162.875 221.611 163.17 221.817C163.468 222.022 163.857 222.125 164.338 222.125C164.885 222.125 165.319 222.009 165.641 221.777C165.965 221.542 166.128 221.26 166.128 220.932C166.128 220.667 166.035 220.445 165.849 220.266C165.664 220.083 165.379 219.947 164.994 219.858L163.722 219.56C163.022 219.394 162.509 219.137 162.18 218.789C161.856 218.438 161.693 217.999 161.693 217.472C161.693 217.041 161.814 216.66 162.056 216.328C162.301 215.997 162.634 215.737 163.055 215.548C163.48 215.359 163.96 215.264 164.497 215.264C165.253 215.264 165.846 215.43 166.277 215.761C166.711 216.093 167.019 216.53 167.202 217.074ZM172.559 223.159C171.823 223.159 171.188 222.997 170.655 222.672C170.124 222.344 169.715 221.886 169.427 221.3C169.142 220.71 168.999 220.024 168.999 219.241C168.999 218.459 169.142 217.77 169.427 217.173C169.715 216.573 170.116 216.106 170.63 215.771C171.147 215.433 171.75 215.264 172.439 215.264C172.837 215.264 173.23 215.33 173.618 215.463C174.006 215.596 174.358 215.811 174.677 216.109C174.995 216.404 175.248 216.795 175.437 217.283C175.626 217.77 175.721 218.37 175.721 219.082V219.58H169.834V218.565H174.528C174.528 218.134 174.441 217.75 174.269 217.412C174.1 217.074 173.858 216.807 173.543 216.612C173.232 216.416 172.864 216.318 172.439 216.318C171.972 216.318 171.568 216.434 171.226 216.666C170.888 216.895 170.628 217.193 170.446 217.561C170.264 217.929 170.172 218.323 170.172 218.744V219.42C170.172 219.997 170.272 220.486 170.471 220.887C170.673 221.285 170.953 221.588 171.311 221.797C171.669 222.002 172.085 222.105 172.559 222.105C172.867 222.105 173.145 222.062 173.394 221.976C173.646 221.886 173.863 221.754 174.045 221.578C174.228 221.399 174.368 221.177 174.468 220.912L175.601 221.23C175.482 221.615 175.282 221.953 175 222.244C174.718 222.533 174.37 222.758 173.956 222.92C173.541 223.08 173.076 223.159 172.559 223.159ZM178.929 218.406V223H177.756V215.364H178.889V216.557H178.988C179.167 216.169 179.439 215.857 179.804 215.622C180.168 215.384 180.639 215.264 181.216 215.264C181.733 215.264 182.185 215.37 182.573 215.582C182.961 215.791 183.262 216.109 183.478 216.537C183.693 216.961 183.801 217.498 183.801 218.148V223H182.628V218.227C182.628 217.627 182.472 217.16 182.16 216.825C181.849 216.487 181.421 216.318 180.878 216.318C180.503 216.318 180.168 216.399 179.873 216.562C179.582 216.724 179.351 216.961 179.182 217.273C179.013 217.584 178.929 217.962 178.929 218.406ZM189.078 223.159C188.442 223.159 187.88 222.998 187.393 222.677C186.906 222.352 186.525 221.895 186.25 221.305C185.975 220.711 185.837 220.01 185.837 219.202C185.837 218.4 185.975 217.704 186.25 217.114C186.525 216.524 186.908 216.068 187.398 215.746C187.889 215.425 188.455 215.264 189.098 215.264C189.596 215.264 189.988 215.347 190.277 215.513C190.568 215.675 190.79 215.861 190.943 216.07C191.099 216.275 191.22 216.444 191.306 216.577H191.405V212.818H192.578V223H191.445V221.827H191.306C191.22 221.966 191.097 222.142 190.938 222.354C190.779 222.562 190.552 222.75 190.257 222.915C189.962 223.078 189.569 223.159 189.078 223.159ZM189.238 222.105C189.708 222.105 190.106 221.982 190.431 221.737C190.756 221.489 191.002 221.146 191.172 220.708C191.341 220.267 191.425 219.759 191.425 219.182C191.425 218.612 191.342 218.113 191.176 217.685C191.011 217.254 190.766 216.92 190.441 216.681C190.116 216.439 189.715 216.318 189.238 216.318C188.74 216.318 188.326 216.446 187.995 216.701C187.667 216.953 187.42 217.296 187.254 217.73C187.092 218.161 187.01 218.645 187.01 219.182C187.01 219.725 187.093 220.219 187.259 220.663C187.428 221.104 187.676 221.455 188.005 221.717C188.336 221.976 188.747 222.105 189.238 222.105ZM195.14 223V215.364H196.314V223H195.14ZM195.737 214.091C195.508 214.091 195.311 214.013 195.145 213.857C194.983 213.701 194.902 213.514 194.902 213.295C194.902 213.077 194.983 212.889 195.145 212.734C195.311 212.578 195.508 212.5 195.737 212.5C195.966 212.5 196.161 212.578 196.324 212.734C196.489 212.889 196.572 213.077 196.572 213.295C196.572 213.514 196.489 213.701 196.324 213.857C196.161 214.013 195.966 214.091 195.737 214.091ZM199.886 218.406V223H198.713V215.364H199.846V216.557H199.945C200.124 216.169 200.396 215.857 200.761 215.622C201.125 215.384 201.596 215.264 202.173 215.264C202.69 215.264 203.142 215.37 203.53 215.582C203.918 215.791 204.219 216.109 204.435 216.537C204.65 216.961 204.758 217.498 204.758 218.148V223H203.585V218.227C203.585 217.627 203.429 217.16 203.117 216.825C202.806 216.487 202.378 216.318 201.835 216.318C201.46 216.318 201.125 216.399 200.83 216.562C200.539 216.724 200.308 216.961 200.139 217.273C199.97 217.584 199.886 217.962 199.886 218.406ZM210.234 226.023C209.668 226.023 209.18 225.95 208.773 225.804C208.365 225.661 208.025 225.473 207.754 225.237C207.485 225.005 207.271 224.757 207.112 224.491L208.047 223.835C208.153 223.974 208.287 224.134 208.45 224.312C208.612 224.495 208.834 224.652 209.116 224.785C209.401 224.921 209.774 224.989 210.234 224.989C210.851 224.989 211.36 224.839 211.761 224.541C212.162 224.243 212.362 223.776 212.362 223.139V221.588H212.263C212.177 221.727 212.054 221.9 211.895 222.105C211.739 222.307 211.514 222.488 211.219 222.647C210.927 222.803 210.533 222.881 210.036 222.881C209.419 222.881 208.866 222.735 208.375 222.443C207.888 222.152 207.502 221.727 207.217 221.17C206.935 220.614 206.794 219.937 206.794 219.142C206.794 218.36 206.932 217.679 207.207 217.099C207.482 216.515 207.865 216.065 208.355 215.746C208.846 215.425 209.412 215.264 210.055 215.264C210.553 215.264 210.947 215.347 211.239 215.513C211.534 215.675 211.759 215.861 211.915 216.07C212.074 216.275 212.196 216.444 212.283 216.577H212.402V215.364H213.536V223.219C213.536 223.875 213.386 224.409 213.088 224.82C212.793 225.234 212.395 225.537 211.895 225.729C211.398 225.925 210.844 226.023 210.234 226.023ZM210.195 221.827C210.665 221.827 211.063 221.719 211.388 221.504C211.713 221.288 211.96 220.978 212.129 220.574C212.298 220.17 212.382 219.686 212.382 219.122C212.382 218.572 212.299 218.086 212.134 217.665C211.968 217.245 211.723 216.915 211.398 216.676C211.073 216.437 210.672 216.318 210.195 216.318C209.697 216.318 209.283 216.444 208.952 216.696C208.624 216.948 208.377 217.286 208.211 217.71C208.049 218.134 207.967 218.605 207.967 219.122C207.967 219.652 208.05 220.121 208.216 220.529C208.385 220.933 208.634 221.252 208.962 221.484C209.293 221.712 209.704 221.827 210.195 221.827ZM222.368 223.179C221.884 223.179 221.445 223.088 221.05 222.906C220.656 222.72 220.343 222.453 220.111 222.105C219.879 221.754 219.763 221.33 219.763 220.832C219.763 220.395 219.849 220.04 220.021 219.768C220.194 219.493 220.424 219.278 220.712 219.122C221.001 218.966 221.319 218.85 221.667 218.774C222.018 218.695 222.371 218.632 222.726 218.585C223.19 218.526 223.566 218.481 223.854 218.451C224.146 218.418 224.358 218.363 224.491 218.287C224.627 218.211 224.695 218.078 224.695 217.889V217.849C224.695 217.359 224.56 216.978 224.292 216.706C224.027 216.434 223.624 216.298 223.084 216.298C222.524 216.298 222.085 216.421 221.766 216.666C221.448 216.911 221.224 217.173 221.095 217.452L219.982 217.054C220.18 216.59 220.446 216.229 220.777 215.97C221.112 215.708 221.476 215.526 221.871 215.423C222.268 215.317 222.66 215.264 223.044 215.264C223.289 215.264 223.571 215.294 223.889 215.354C224.211 215.41 224.521 215.528 224.819 215.707C225.121 215.886 225.371 216.156 225.57 216.517C225.768 216.878 225.868 217.362 225.868 217.969V223H224.695V221.966H224.635C224.555 222.132 224.423 222.309 224.237 222.498C224.052 222.687 223.805 222.848 223.496 222.98C223.188 223.113 222.812 223.179 222.368 223.179ZM222.547 222.125C223.011 222.125 223.402 222.034 223.72 221.852C224.042 221.669 224.284 221.434 224.446 221.146C224.612 220.857 224.695 220.554 224.695 220.236V219.162C224.645 219.222 224.536 219.276 224.366 219.326C224.201 219.372 224.009 219.414 223.79 219.45C223.574 219.483 223.364 219.513 223.158 219.54C222.956 219.563 222.792 219.583 222.666 219.599C222.361 219.639 222.076 219.704 221.811 219.793C221.549 219.879 221.337 220.01 221.175 220.186C221.016 220.358 220.936 220.594 220.936 220.892C220.936 221.3 221.087 221.608 221.388 221.817C221.693 222.022 222.08 222.125 222.547 222.125ZM232.447 223V215.364H233.58V216.557H233.68C233.839 216.149 234.096 215.833 234.45 215.607C234.805 215.379 235.231 215.264 235.728 215.264C236.232 215.264 236.651 215.379 236.986 215.607C237.324 215.833 237.588 216.149 237.776 216.557H237.856C238.052 216.162 238.345 215.849 238.736 215.617C239.127 215.382 239.596 215.264 240.143 215.264C240.826 215.264 241.384 215.478 241.818 215.906C242.253 216.33 242.47 216.991 242.47 217.889V223H241.296V217.889C241.296 217.326 241.142 216.923 240.834 216.681C240.526 216.439 240.163 216.318 239.745 216.318C239.208 216.318 238.792 216.481 238.497 216.805C238.202 217.127 238.055 217.535 238.055 218.028V223H236.862V217.77C236.862 217.336 236.721 216.986 236.439 216.721C236.157 216.452 235.794 216.318 235.35 216.318C235.045 216.318 234.76 216.399 234.495 216.562C234.233 216.724 234.021 216.95 233.859 217.238C233.7 217.523 233.62 217.853 233.62 218.227V223H232.447ZM248.067 223.159C247.331 223.159 246.696 222.997 246.162 222.672C245.632 222.344 245.223 221.886 244.934 221.3C244.649 220.71 244.507 220.024 244.507 219.241C244.507 218.459 244.649 217.77 244.934 217.173C245.223 216.573 245.624 216.106 246.138 215.771C246.655 215.433 247.258 215.264 247.947 215.264C248.345 215.264 248.738 215.33 249.126 215.463C249.513 215.596 249.866 215.811 250.184 216.109C250.503 216.404 250.756 216.795 250.945 217.283C251.134 217.77 251.229 218.37 251.229 219.082V219.58H245.342V218.565H250.035C250.035 218.134 249.949 217.75 249.777 217.412C249.608 217.074 249.366 216.807 249.051 216.612C248.739 216.416 248.372 216.318 247.947 216.318C247.48 216.318 247.076 216.434 246.734 216.666C246.396 216.895 246.136 217.193 245.954 217.561C245.771 217.929 245.68 218.323 245.68 218.744V219.42C245.68 219.997 245.78 220.486 245.979 220.887C246.181 221.285 246.461 221.588 246.819 221.797C247.177 222.002 247.593 222.105 248.067 222.105C248.375 222.105 248.653 222.062 248.902 221.976C249.154 221.886 249.371 221.754 249.553 221.578C249.735 221.399 249.876 221.177 249.976 220.912L251.109 221.23C250.99 221.615 250.789 221.953 250.508 222.244C250.226 222.533 249.878 222.758 249.464 222.92C249.049 223.08 248.584 223.159 248.067 223.159ZM258.672 217.074L257.618 217.372C257.552 217.196 257.454 217.026 257.325 216.86C257.199 216.691 257.027 216.552 256.808 216.442C256.589 216.333 256.309 216.278 255.968 216.278C255.501 216.278 255.111 216.386 254.8 216.602C254.491 216.814 254.337 217.084 254.337 217.412C254.337 217.704 254.443 217.934 254.655 218.103C254.867 218.272 255.199 218.413 255.65 218.526L256.783 218.804C257.466 218.97 257.975 219.223 258.309 219.565C258.644 219.903 258.812 220.339 258.812 220.872C258.812 221.31 258.686 221.701 258.434 222.045C258.185 222.39 257.837 222.662 257.39 222.861C256.942 223.06 256.422 223.159 255.829 223.159C255.05 223.159 254.405 222.99 253.895 222.652C253.384 222.314 253.061 221.82 252.925 221.17L254.039 220.892C254.145 221.303 254.345 221.611 254.64 221.817C254.939 222.022 255.328 222.125 255.809 222.125C256.356 222.125 256.79 222.009 257.111 221.777C257.436 221.542 257.599 221.26 257.599 220.932C257.599 220.667 257.506 220.445 257.32 220.266C257.135 220.083 256.849 219.947 256.465 219.858L255.192 219.56C254.493 219.394 253.979 219.137 253.651 218.789C253.326 218.438 253.164 217.999 253.164 217.472C253.164 217.041 253.285 216.66 253.527 216.328C253.772 215.997 254.105 215.737 254.526 215.548C254.95 215.359 255.431 215.264 255.968 215.264C256.724 215.264 257.317 215.43 257.748 215.761C258.182 216.093 258.49 216.53 258.672 217.074ZM266.237 217.074L265.183 217.372C265.117 217.196 265.019 217.026 264.89 216.86C264.764 216.691 264.591 216.552 264.373 216.442C264.154 216.333 263.874 216.278 263.532 216.278C263.065 216.278 262.676 216.386 262.364 216.602C262.056 216.814 261.902 217.084 261.902 217.412C261.902 217.704 262.008 217.934 262.22 218.103C262.432 218.272 262.763 218.413 263.214 218.526L264.348 218.804C265.03 218.97 265.539 219.223 265.874 219.565C266.209 219.903 266.376 220.339 266.376 220.872C266.376 221.31 266.25 221.701 265.998 222.045C265.75 222.39 265.402 222.662 264.954 222.861C264.507 223.06 263.986 223.159 263.393 223.159C262.614 223.159 261.97 222.99 261.459 222.652C260.949 222.314 260.626 221.82 260.49 221.17L261.603 220.892C261.709 221.303 261.91 221.611 262.205 221.817C262.503 222.022 262.893 222.125 263.373 222.125C263.92 222.125 264.354 222.009 264.676 221.777C265.001 221.542 265.163 221.26 265.163 220.932C265.163 220.667 265.07 220.445 264.885 220.266C264.699 220.083 264.414 219.947 264.029 219.858L262.757 219.56C262.057 219.394 261.544 219.137 261.216 218.789C260.891 218.438 260.728 217.999 260.728 217.472C260.728 217.041 260.849 216.66 261.091 216.328C261.337 215.997 261.67 215.737 262.091 215.548C262.515 215.359 262.995 215.264 263.532 215.264C264.288 215.264 264.881 215.43 265.312 215.761C265.746 216.093 266.055 216.53 266.237 217.074ZM270.639 223.179C270.155 223.179 269.716 223.088 269.322 222.906C268.927 222.72 268.614 222.453 268.382 222.105C268.15 221.754 268.034 221.33 268.034 220.832C268.034 220.395 268.12 220.04 268.293 219.768C268.465 219.493 268.695 219.278 268.984 219.122C269.272 218.966 269.59 218.85 269.938 218.774C270.29 218.695 270.643 218.632 270.997 218.585C271.461 218.526 271.838 218.481 272.126 218.451C272.418 218.418 272.63 218.363 272.762 218.287C272.898 218.211 272.966 218.078 272.966 217.889V217.849C272.966 217.359 272.832 216.978 272.563 216.706C272.298 216.434 271.896 216.298 271.355 216.298C270.795 216.298 270.356 216.421 270.038 216.666C269.72 216.911 269.496 217.173 269.367 217.452L268.253 217.054C268.452 216.59 268.717 216.229 269.048 215.97C269.383 215.708 269.748 215.526 270.142 215.423C270.54 215.317 270.931 215.264 271.316 215.264C271.561 215.264 271.843 215.294 272.161 215.354C272.482 215.41 272.792 215.528 273.09 215.707C273.392 215.886 273.642 216.156 273.841 216.517C274.04 216.878 274.139 217.362 274.139 217.969V223H272.966V221.966H272.906C272.827 222.132 272.694 222.309 272.509 222.498C272.323 222.687 272.076 222.848 271.768 222.98C271.46 223.113 271.084 223.179 270.639 223.179ZM270.818 222.125C271.282 222.125 271.673 222.034 271.992 221.852C272.313 221.669 272.555 221.434 272.718 221.146C272.883 220.857 272.966 220.554 272.966 220.236V219.162C272.916 219.222 272.807 219.276 272.638 219.326C272.472 219.372 272.28 219.414 272.061 219.45C271.846 219.483 271.635 219.513 271.43 219.54C271.228 219.563 271.064 219.583 270.938 219.599C270.633 219.639 270.348 219.704 270.083 219.793C269.821 219.879 269.609 220.01 269.446 220.186C269.287 220.358 269.208 220.594 269.208 220.892C269.208 221.3 269.358 221.608 269.66 221.817C269.965 222.022 270.351 222.125 270.818 222.125ZM279.613 226.023C279.047 226.023 278.559 225.95 278.152 225.804C277.744 225.661 277.404 225.473 277.132 225.237C276.864 225.005 276.65 224.757 276.491 224.491L277.426 223.835C277.532 223.974 277.666 224.134 277.828 224.312C277.991 224.495 278.213 224.652 278.495 224.785C278.78 224.921 279.153 224.989 279.613 224.989C280.23 224.989 280.739 224.839 281.14 224.541C281.541 224.243 281.741 223.776 281.741 223.139V221.588H281.642C281.556 221.727 281.433 221.9 281.274 222.105C281.118 222.307 280.893 222.488 280.598 222.647C280.306 222.803 279.912 222.881 279.414 222.881C278.798 222.881 278.244 222.735 277.754 222.443C277.267 222.152 276.881 221.727 276.596 221.17C276.314 220.614 276.173 219.937 276.173 219.142C276.173 218.36 276.31 217.679 276.586 217.099C276.861 216.515 277.243 216.065 277.734 215.746C278.225 215.425 278.791 215.264 279.434 215.264C279.931 215.264 280.326 215.347 280.618 215.513C280.913 215.675 281.138 215.861 281.294 216.07C281.453 216.275 281.575 216.444 281.662 216.577H281.781V215.364H282.914V223.219C282.914 223.875 282.765 224.409 282.467 224.82C282.172 225.234 281.774 225.537 281.274 225.729C280.777 225.925 280.223 226.023 279.613 226.023ZM279.574 221.827C280.044 221.827 280.442 221.719 280.767 221.504C281.092 221.288 281.338 220.978 281.507 220.574C281.676 220.17 281.761 219.686 281.761 219.122C281.761 218.572 281.678 218.086 281.512 217.665C281.347 217.245 281.101 216.915 280.777 216.676C280.452 216.437 280.051 216.318 279.574 216.318C279.076 216.318 278.662 216.444 278.331 216.696C278.002 216.948 277.756 217.286 277.59 217.71C277.427 218.134 277.346 218.605 277.346 219.122C277.346 219.652 277.429 220.121 277.595 220.529C277.764 220.933 278.012 221.252 278.341 221.484C278.672 221.712 279.083 221.827 279.574 221.827ZM288.514 223.159C287.778 223.159 287.143 222.997 286.61 222.672C286.079 222.344 285.67 221.886 285.382 221.3C285.097 220.71 284.954 220.024 284.954 219.241C284.954 218.459 285.097 217.77 285.382 217.173C285.67 216.573 286.071 216.106 286.585 215.771C287.102 215.433 287.705 215.264 288.395 215.264C288.792 215.264 289.185 215.33 289.573 215.463C289.961 215.596 290.314 215.811 290.632 216.109C290.95 216.404 291.203 216.795 291.392 217.283C291.581 217.77 291.676 218.37 291.676 219.082V219.58H285.789V218.565H290.483C290.483 218.134 290.396 217.75 290.224 217.412C290.055 217.074 289.813 216.807 289.498 216.612C289.187 216.416 288.819 216.318 288.395 216.318C287.927 216.318 287.523 216.434 287.181 216.666C286.843 216.895 286.583 217.193 286.401 217.561C286.219 217.929 286.127 218.323 286.127 218.744V219.42C286.127 219.997 286.227 220.486 286.426 220.887C286.628 221.285 286.908 221.588 287.266 221.797C287.624 222.002 288.04 222.105 288.514 222.105C288.822 222.105 289.1 222.062 289.349 221.976C289.601 221.886 289.818 221.754 290 221.578C290.183 221.399 290.324 221.177 290.423 220.912L291.556 221.23C291.437 221.615 291.237 221.953 290.955 222.244C290.673 222.533 290.325 222.758 289.911 222.92C289.497 223.08 289.031 223.159 288.514 223.159ZM294.566 223.08C294.32 223.08 294.11 222.992 293.934 222.816C293.759 222.64 293.671 222.43 293.671 222.185C293.671 221.939 293.759 221.729 293.934 221.553C294.11 221.378 294.32 221.29 294.566 221.29C294.811 221.29 295.021 221.378 295.197 221.553C295.373 221.729 295.461 221.939 295.461 222.185C295.461 222.347 295.419 222.496 295.336 222.632C295.257 222.768 295.149 222.877 295.013 222.96C294.881 223.04 294.731 223.08 294.566 223.08Z" fill="#C5C6D0" style="fill:#C5C6D0;fill:color(display-p3 0.7725 0.7765 0.8157);fill-opacity:1;"/>
</svg>
