<svg width="24" height="24" viewBox="0 0 24 24" fill="none" xmlns="http://www.w3.org/2000/svg">
<g id="Outline/Send">
<path id="Vector" fill-rule="evenodd" clip-rule="evenodd" d="M4.70076 3.19499C5.09459 3.12479 5.50054 3.18239 5.8593 3.35937L5.8672 3.36326L20.1277 10.6076C20.3436 10.7174 20.5252 10.8849 20.6518 11.0914C20.7771 11.2957 20.844 11.5302 20.8455 11.7697C20.8455 11.7722 20.8455 11.7747 20.8455 11.7772L20.8455 11.7798C20.8451 12.0213 20.7781 12.2579 20.6518 12.4638C20.5252 12.6703 20.3439 12.8377 20.128 12.9475L5.85933 20.2056C5.50057 20.3826 5.09459 20.4402 4.70076 20.37C4.30693 20.2998 3.94588 20.1055 3.67036 19.8154C3.39485 19.5254 3.21932 19.1548 3.16943 18.7579C3.11953 18.361 3.19789 17.9585 3.39305 17.6093C3.39788 17.6007 3.40288 17.5921 3.40805 17.5837L6.96171 11.7776L3.40835 5.98174C3.40307 5.97314 3.39797 5.96443 3.39305 5.95562C3.19789 5.60642 3.11953 5.20395 3.16943 4.80704C3.21932 4.41013 3.39485 4.03958 3.67036 3.74954C3.94588 3.45951 4.30693 3.26519 4.70076 3.19499ZM18.3228 11.0272L5.19279 4.70317C5.12176 4.66889 5.04169 4.65786 4.96398 4.67171C4.88521 4.68575 4.813 4.72462 4.7579 4.78262C4.7028 4.84063 4.66769 4.91474 4.65771 4.99412C4.6482 5.06984 4.66201 5.14656 4.69717 5.21408L8.43625 11.0272H18.3228ZM8.39908 12.5272H18.3234L5.19265 18.8618C5.12165 18.8961 5.04164 18.9071 4.96398 18.8932C4.88521 18.8792 4.813 18.8403 4.7579 18.7823C4.7028 18.7243 4.66769 18.6502 4.65771 18.5708C4.64819 18.4951 4.66204 18.4183 4.69727 18.3507L8.39908 12.5272Z" fill="#C5C6D0" style="fill:#C5C6D0;fill:color(display-p3 0.7725 0.7765 0.8157);fill-opacity:1;"/>
</g>
</svg>
