<svg width="800" height="682" viewBox="0 0 800 682" fill="none" xmlns="http://www.w3.org/2000/svg">
<path d="M550.65 212.17H397.766C461.1 124.025 397.616 0.899994 289.278 0.899994C180.773 0.899994 117.581 124.198 180.791 212.17H27.9063C12.4938 212.17 0 224.666 0 240.077V653.192C0 668.605 12.4953 681.098 27.9063 681.098H550.648C566.061 681.098 578.555 668.603 578.555 653.192V240.077C578.556 224.666 566.061 212.17 550.65 212.17ZM212.784 401.381H161.303C145.891 401.381 133.397 388.886 133.397 373.475C133.397 358.064 145.892 345.569 161.303 345.569H212.784C228.197 345.569 240.691 358.064 240.691 373.475C240.691 388.886 228.197 401.381 212.784 401.381Z" fill="white"/>
<path d="M759.564 241.969L636.9 300.733C623.984 306.919 615.767 319.97 615.767 334.291V558.977C615.767 573.298 623.984 586.348 636.9 592.534L760.038 651.523C777.869 660.069 800 647.903 800 625.638V266.913C800 246.892 779.183 232.57 759.564 241.969Z" fill="white"/>
</svg>
