<svg width="25" height="25" viewBox="0 0 25 25" fill="none" xmlns="http://www.w3.org/2000/svg">
<path d="M10.4167 14.5833H14.5833M14.5833 10.4167H14.5937M18.75 10.4167H18.7604M10.4167 10.4167H10.4271M6.24999 10.4167H6.26041M6.24999 14.5833H6.26041M18.75 14.5833H18.7604M22.9167 16.6667V8.33333C22.9167 7.7808 22.6972 7.25089 22.3065 6.86019C21.9158 6.46949 21.3859 6.25 20.8333 6.25H4.16666C3.61413 6.25 3.08422 6.46949 2.69352 6.86019C2.30282 7.25089 2.08333 7.7808 2.08333 8.33333V16.6667C2.08333 17.2192 2.30282 17.7491 2.69352 18.1398C3.08422 18.5305 3.61413 18.75 4.16666 18.75H20.8333C21.3859 18.75 21.9158 18.5305 22.3065 18.1398C22.6972 17.7491 22.9167 17.2192 22.9167 16.6667Z" stroke="white" stroke-width="2.08333" stroke-linecap="round" stroke-linejoin="round"/>
</svg>
