<svg xmlns="http://www.w3.org/2000/svg" version="1.1" xmlns:xlink="http://www.w3.org/1999/xlink" xmlns:svgjs="http://svgjs.dev/svgjs" width="1500" height="1500" viewBox="0 0 1500 1500"><rect width="1500" height="1500" fill="#c8c8c8"></rect><g transform="matrix(0.6666666666666666,0,0,0.6666666666666666,249.39393939393932,642.5648375780544)"><svg viewBox="0 0 396 85" data-background-color="#c8c8c8" preserveAspectRatio="xMidYMid meet" height="321" width="1500" xmlns="http://www.w3.org/2000/svg" xmlns:xlink="http://www.w3.org/1999/xlink"><g id="tight-bounds" transform="matrix(1,0,0,1,0.24000000000003752,0.17284488722137326)"><svg viewBox="0 0 395.5199999999999 84.65431022555727" height="84.65431022555727" width="395.5199999999999"><g><svg viewBox="0 0 517.7149875512195 110.80806321951218" height="84.65431022555727" width="395.5199999999999"><g transform="matrix(1,0,0,1,0,31.286958439024385)"><svg viewBox="0 0 395.52 48.23414634146341" height="48.23414634146341" width="395.52"><g id="textblocktransform"><svg viewBox="0 0 395.52 48.23414634146341" height="48.23414634146341" width="395.52" id="textblock"><g><svg viewBox="0 0 395.52 48.23414634146341" height="48.23414634146341" width="395.52"><g transform="matrix(1,0,0,1,0,0)"><svg width="395.52" viewBox="1.25 -37.5 311.57 38" height="48.23414634146341" data-palette-color="#6b7280"><path d="M1.25-34.05L1.25-35 16.5-35 16.5-34.05 13.75-34.05 13.75-0.95 16.5-0.95 16.5 0 1.25 0 1.25-0.95 4-0.95 4-34.05 1.25-34.05ZM18.35-22.9L18.35-23.8 30.4-23.8 30.4-19.2Q31.2-21.5 32.85-22.9 34.5-24.3 37.85-24.3L37.85-24.3Q45.6-24.3 45.6-15.95L45.6-15.95 45.6-0.9 48.4-0.9 48.4 0 34.25 0 34.25-0.9 36.3-0.9 36.3-17.15Q36.3-20.15 35.9-21.03 35.5-21.9 34.45-21.9L34.45-21.9Q32.85-21.9 31.62-19.8 30.4-17.7 30.4-14.7L30.4-14.7 30.4-0.9 32.55-0.9 32.55 0 18.35 0 18.35-0.9 21.1-0.9 21.1-22.9 18.35-22.9ZM51.3-7.15L51.3-7.15 51.3-22.9 48.55-22.9 48.55-23.8 51.3-23.8 51.3-30.25 60.59-32.55 60.59-23.8 67.09-23.8 67.09-22.9 60.59-22.9 60.59-6.05Q60.59-3.7 61.07-2.6 61.55-1.5 63.05-1.5 64.55-1.5 65.67-3 66.8-4.5 67.15-7.1L67.15-7.1 68-7Q67.59-3.55 65.8-1.53 64 0.5 59.84 0.5 55.7 0.5 53.5-1.15 51.3-2.8 51.3-7.15ZM81.64 0.5Q75.19 0.5 71.97-2.83 68.74-6.15 68.74-12.08 68.74-18 72.37-21.15 75.99-24.3 81.59-24.3L81.59-24.3Q92.94-24.3 92.49-12.9L92.49-12.9 78.39-12.9 78.39-10.95Q78.39-6.05 79.64-3.55 80.89-1.05 83.99-1.05L83.99-1.05Q89.79-1.05 91.59-7.25L91.59-7.25 92.49-7.1Q91.54-3.5 89.07-1.5 86.59 0.5 81.64 0.5L81.64 0.5ZM78.44-16.35L78.44-13.9 83.59-13.9 83.59-16.35Q83.59-20.4 83.12-21.88 82.64-23.35 81.22-23.35 79.79-23.35 79.12-21.78 78.44-20.2 78.44-16.35L78.44-16.35ZM94.09-36.6L94.09-37.5 106.34-37.5 106.34-0.9 109.14-0.9 109.14 0 94.29 0 94.29-0.9 97.04-0.9 97.04-36.6 94.09-36.6ZM109.89-36.6L109.89-37.5 122.14-37.5 122.14-0.9 124.94-0.9 124.94 0 110.09 0 110.09-0.9 112.84-0.9 112.84-36.6 109.89-36.6ZM133.24-27.25Q130.59-27.25 129.46-28.6 128.34-29.95 128.34-31.95 128.34-33.95 129.56-35.25 130.78-36.55 133.28-36.55 135.78-36.55 137.09-35.38 138.38-34.2 138.38-32.02 138.38-29.85 137.13-28.55 135.88-27.25 133.24-27.25ZM125.69-22.9L125.69-23.8 137.94-23.8 137.94-0.9 140.74-0.9 140.74 0 125.89 0 125.89-0.9 128.63-0.9 128.63-22.9 125.69-22.9ZM157.48-0.55L157.48-0.55Q159.98-0.55 161.91-1.9 163.83-3.25 163.83-5.98 163.83-8.7 161.76-10.15 159.68-11.6 155.86-12.68 152.03-13.75 150.31-14.55 148.58-15.35 147.03-16.65L147.03-16.65Q143.93-19.25 143.93-24.7L143.93-24.7Q143.93-29.15 147.11-32.35 150.28-35.55 155.78-35.55L155.78-35.55Q158.43-35.55 161.31-34.77 164.18-34 164.88-34 165.58-34 166.13-35L166.13-35 166.68-35 167.03-24.9 166.23-24.9Q163.83-29.25 161.21-31.88 158.58-34.5 155.51-34.5 152.43-34.5 150.73-33.08 149.03-31.65 149.03-29.28 149.03-26.9 151.06-25.63 153.08-24.35 156.03-23.55 158.98-22.75 159.91-22.45 160.83-22.15 162.21-21.63 163.58-21.1 164.46-20.53 165.33-19.95 166.31-19.07 167.28-18.2 167.83-17.15L167.83-17.15Q169.18-14.75 169.18-11.45L169.18-11.45Q169.18-6.05 165.81-2.78 162.43 0.5 156.93 0.5L156.93 0.5Q154.08 0.5 150.41-0.25 146.73-1 146.33-1L146.33-1Q145.63-1 144.98 0.5L144.98 0.5 144.28 0.5 143.78-11.4 144.63-11.4Q146.83-7.05 150.26-3.8 153.68-0.55 157.48-0.55ZM174.23-7.15L174.23-7.15 174.23-22.9 171.48-22.9 171.48-23.8 174.23-23.8 174.23-30.25 183.53-32.55 183.53-23.8 190.03-23.8 190.03-22.9 183.53-22.9 183.53-6.05Q183.53-3.7 184.01-2.6 184.48-1.5 185.98-1.5 187.48-1.5 188.61-3 189.73-4.5 190.08-7.1L190.08-7.1 190.93-7Q190.53-3.55 188.73-1.53 186.93 0.5 182.78 0.5 178.63 0.5 176.43-1.15 174.23-2.8 174.23-7.15ZM208.13-22.4L208.13-22.4Q206.28-22.4 204.88-20 203.48-17.6 203.48-14.3L203.48-14.3 203.48-0.9 207.03-0.9 207.03 0 191.43 0 191.43-0.9 194.18-0.9 194.18-22.9 191.43-22.9 191.43-23.8 203.48-23.8 203.48-19Q204.13-21.55 205.98-22.93 207.83-24.3 210.18-24.3 212.53-24.3 214-22.98 215.48-21.65 215.48-19.23 215.48-16.8 214.38-15.5 213.28-14.2 211-14.2 208.73-14.2 207.65-15.7 206.58-17.2 207.38-19.85L207.38-19.85 209.18-19.85Q210.43-22.4 208.13-22.4ZM229.08 0.5Q222.63 0.5 219.4-2.83 216.18-6.15 216.18-12.08 216.18-18 219.8-21.15 223.43-24.3 229.03-24.3L229.03-24.3Q240.38-24.3 239.93-12.9L239.93-12.9 225.83-12.9 225.83-10.95Q225.83-6.05 227.08-3.55 228.33-1.05 231.43-1.05L231.43-1.05Q237.23-1.05 239.03-7.25L239.03-7.25 239.93-7.1Q238.98-3.5 236.5-1.5 234.03 0.5 229.08 0.5L229.08 0.5ZM225.88-16.35L225.88-13.9 231.03-13.9 231.03-16.35Q231.03-20.4 230.55-21.88 230.08-23.35 228.65-23.35 227.23-23.35 226.55-21.78 225.88-20.2 225.88-16.35L225.88-16.35ZM253.72-11.75L253.72-11.75 255.17-11.75 255.17-15.6Q255.17-20.35 254.65-21.98 254.12-23.6 252.62-23.6L252.62-23.6Q251.72-23.6 251-23.13 250.27-22.65 250.27-21.83 250.27-21 250.57-20.15L250.57-20.15 251.82-20.15Q252.22-19.1 252.22-17.63 252.22-16.15 250.97-15.08 249.72-14 247.82-14L247.82-14Q243.52-14 243.52-18.15L243.52-18.15Q243.52-24.3 253.97-24.3L253.97-24.3Q259.92-24.3 262.2-22.28 264.47-20.25 264.47-14.85L264.47-14.85 264.47-4.7Q264.47-2.1 265.92-2.1L265.92-2.1Q267.62-2.1 267.92-7.25L267.92-7.25 268.67-7.2Q268.47-2.8 267.02-1.15 265.57 0.5 262.27 0.5L262.27 0.5Q256.27 0.5 255.37-3.2L255.37-3.2Q254.72-1.3 253.42-0.4 252.12 0.5 249.62 0.5L249.62 0.5Q242.22 0.5 242.22-5.55L242.22-5.55Q242.22-9.1 245.05-10.43 247.87-11.75 253.72-11.75ZM251.72-5.6Q251.72-3 252-2.25 252.27-1.5 253.05-1.5 253.82-1.5 254.5-2.78 255.17-4.05 255.17-6.3L255.17-6.3 255.17-10.95 254.82-10.95Q251.72-10.95 251.72-6.4L251.72-6.4 251.72-5.6ZM269.17-22.9L269.17-23.8 281.22-23.8 281.22-19.2Q282.87-24.3 288.5-24.3 294.12-24.3 295.32-18.9L295.32-18.9Q297.07-24.3 302.67-24.3L302.67-24.3Q310.02-24.3 310.02-15.95L310.02-15.95 310.02-0.9 312.82-0.9 312.82 0 298.97 0 298.97-0.9 300.72-0.9 300.72-17.15Q300.72-20.95 300.07-21.6L300.07-21.6Q299.77-21.9 299.27-21.9L299.27-21.9Q297.82-21.9 296.72-19.95 295.62-18 295.62-15L295.62-15 295.62-0.9 297.42-0.9 297.42 0 284.57 0 284.57-0.9 286.32-0.9 286.32-17.15Q286.32-20.95 285.67-21.6L285.67-21.6Q285.37-21.9 284.87-21.9L284.87-21.9Q283.47-21.9 282.35-19.78 281.22-17.65 281.22-14.7L281.22-14.7 281.22-0.9 283.02-0.9 283.02 0 269.17 0 269.17-0.9 271.92-0.9 271.92-22.9 269.17-22.9Z" opacity="1" transform="matrix(1,0,0,1,0,0)" fill="#6b7280" class="wordmark-text-0" data-fill-palette-color="primary" id="text-0"></path></svg></g></svg></g></svg></g></svg></g><g transform="matrix(1,0,0,1,406.9069243317073,0)"><svg viewBox="0 0 110.80806321951218 110.80806321951218" height="110.80806321951218" width="110.80806321951218"><g><svg></svg></g><g id="icon-0"><svg viewBox="0 0 110.80806321951218 110.80806321951218" height="110.80806321951218" width="110.80806321951218"><g><rect width="100.75325748292681" height="100.75325748292681" x="5.027402868292683" y="5.027402868292683" fill="#97978d" data-fill-palette-color="accent"></rect><rect width="100.75325748292681" height="100.75325748292681" x="8.881784197001252e-16" y="8.881784197001252e-16" fill="#97978d" opacity="0.5" data-fill-palette-color="accent"></rect></g><g transform="matrix(1,0,0,1,14.364008195121947,14.364008195121947)"><svg viewBox="0 0 82.08004682926828 82.08004682926828" height="82.08004682926828" width="82.08004682926828"><g><svg xmlns="http://www.w3.org/2000/svg" data-name="Layer 1" viewBox="15 15 70 70" x="0" y="0" height="82.08004682926828" width="82.08004682926828" class="icon-cg-0" data-fill-palette-color="quaternary" id="cg-0"><path d="M50 85A10 10 0 0 1 40 75V25a5 5 0 1 0-10 0V52.5A7.5 7.5 0 0 1 22.5 60h-5a2.5 2.5 0 0 1 0-5h5A2.5 2.5 0 0 0 25 52.5V25a10 10 0 0 1 20 0V75a5 5 0 0 0 10 0V25a10 10 0 0 1 20 0V52.5A2.5 2.5 0 0 0 77.5 55h5a2.5 2.5 0 0 1 0 5h-5A7.5 7.5 0 0 1 70 52.5V25a5 5 0 0 0-10 0V75A10 10 0 0 1 50 85Z" fill="#c8c8c8" data-fill-palette-color="quaternary"></path></svg></g></svg></g></svg></g></svg></g></svg></g><defs></defs></svg><rect width="395.5199999999999" height="84.65431022555727" fill="none" stroke="none" visibility="hidden"></rect></g></svg></g></svg>