<svg width="800" height="800" viewBox="0 0 800 800" fill="none" xmlns="http://www.w3.org/2000/svg">
<path d="M641.883 0H162.117C126.766 0 96 28.1562 96 63.4687V735.383C96 770.695 126.766 800 162.117 800H641.883C677.234 800 704 770.695 704 735.383V63.4687C704 28.1562 677.234 0 641.883 0ZM672 735.383C672 753.055 659.594 768 641.883 768H162.117C144.406 768 128 753.055 128 735.383V63.4687C128 45.8047 144.406 32 162.117 32H641.883C659.594 32 672 45.8047 672 63.4687V735.383Z" fill="white"/>
<path d="M530 63.4297C477.062 63.4297 434 106.492 434 159.43C434 212.367 477.062 255.43 530 255.43C582.937 255.43 626 212.367 626 159.43C626 106.492 582.937 63.4297 530 63.4297ZM530 223.43C494.711 223.43 466 194.719 466 159.43C466 124.141 494.711 95.4297 530 95.4297C565.289 95.4297 594 124.141 594 159.43C594 194.719 565.289 223.43 530 223.43Z" fill="white"/>
<path d="M402 335.43C296.133 335.43 210 421.562 210 527.43C210 633.297 296.133 719.43 402 719.43C507.867 719.43 594 633.297 594 527.43C594 421.562 507.867 335.43 402 335.43ZM402 687.43C313.773 687.43 242 615.656 242 527.43C242 439.203 313.773 367.43 402 367.43C490.227 367.43 562 439.203 562 527.43C562 615.656 490.227 687.43 402 687.43Z" fill="white"/>
</svg>
